{"glyphs":{"0":{"ha":800,"x_min":16,"x_max":699,"o":"m 298 1231 q 94 1091 167 1187 l 71 998 l 60 940 l 60 911 l 54 894 q 54 789 52 817 l 42 742 l 42 579 q 321 -8 16 16 l 321 39 l 321 155 l 321 184 q 263 469 231 311 l 263 492 l 263 522 l 263 556 l 263 585 l 263 603 l 263 632 l 263 649 l 263 673 l 263 696 l 263 719 l 263 777 l 263 795 l 263 812 l 263 829 l 263 876 q 269 969 262 930 q 321 1021 292 1007 l 321 1068 l 321 1114 l 321 1231 l 298 1231 m 426 1202 l 426 1021 q 490 969 460 988 l 490 946 l 490 870 q 490 771 496 812 q 484 725 490 742 l 490 684 l 473 655 l 490 644 l 490 364 l 484 317 q 484 277 488 296 l 467 242 q 408 172 425 213 q 414 155 414 163 q 426 -2 407 64 q 629 96 547 16 q 676 207 651 166 l 676 231 l 682 248 l 682 271 l 682 288 l 688 312 q 693 370 686 345 l 693 416 l 699 428 l 699 475 l 699 591 l 699 614 l 699 637 l 699 661 l 699 684 l 699 707 l 699 730 l 699 748 l 699 771 q 693 829 689 804 q 682 928 682 888 q 670 1027 670 987 q 659 1080 657 1058 q 449 1225 576 1202 l 426 1202 z "},"1":{"ha":445,"x_min":16,"x_max":334,"o":"m 131 1231 q 25 1143 83 1171 q 37 972 16 1044 q 137 979 131 1005 l 137 890 q 142 791 134 830 q 142 708 135 743 l 137 679 q 142 579 134 618 l 137 550 l 137 151 q 131 51 140 90 q 131 -2 135 20 l 149 -2 q 195 -8 176 -8 q 301 16 254 -14 q 330 16 319 20 l 324 56 q 330 138 321 104 l 324 156 l 330 174 l 330 191 l 330 233 l 330 256 l 324 268 q 330 362 334 323 l 330 379 l 330 427 l 330 444 q 324 550 334 509 q 324 573 326 566 l 324 591 l 324 614 l 330 637 l 330 655 l 330 838 l 330 902 l 330 931 l 330 1008 l 330 1031 l 330 1131 l 330 1149 l 330 1219 q 319 1231 320 1225 l 219 1231 l 201 1231 l 131 1231 z "},"2":{"ha":804,"x_min":16,"x_max":798,"o":"m 313 1238 q 50 963 78 1181 l 55 945 l 73 940 l 90 940 l 101 928 l 118 922 l 136 917 l 146 911 l 164 905 l 239 877 q 267 917 248 900 q 347 1025 275 997 l 353 1043 l 353 1060 l 353 1077 q 347 1123 345 1099 l 347 1140 l 347 1215 l 313 1238 m 433 1221 q 490 951 390 1061 q 485 808 500 869 l 473 797 q 445 728 458 752 l 422 694 q 290 608 356 629 q 221 556 260 568 l 221 538 l 181 505 q 153 476 168 487 q 73 367 121 407 q 73 298 71 326 l 95 287 l 113 287 l 124 292 l 158 292 l 181 292 q 198 292 190 290 q 279 281 245 279 l 307 350 l 399 441 l 416 453 l 433 470 l 450 487 l 462 498 l 479 516 q 525 550 506 538 l 536 568 l 548 579 l 565 590 l 576 602 l 593 613 q 651 688 619 662 q 450 1221 798 1073 l 433 1221 m 61 229 q 55 6 16 106 l 95 0 l 113 6 l 130 0 q 279 0 220 9 l 319 0 l 347 0 l 405 0 l 427 0 l 490 0 l 513 0 l 530 -5 q 656 0 608 6 q 668 12 659 12 l 668 29 l 668 52 l 668 69 l 673 184 q 622 229 663 222 l 600 218 q 502 224 541 215 q 456 218 472 216 l 433 218 l 410 224 q 342 224 372 216 q 227 229 274 216 l 221 218 l 204 224 q 61 229 119 216 z "},"3":{"ha":792,"x_min":16,"x_max":764,"o":"m 265 1238 q 26 964 58 1162 l 44 959 q 108 912 79 928 q 212 878 160 878 q 323 1023 237 986 q 334 1098 323 1066 q 334 1215 319 1164 q 265 1238 300 1240 m 393 1208 q 387 1069 403 1130 q 399 1017 397 1040 q 463 947 450 994 l 463 912 q 463 825 461 861 q 329 738 416 741 l 317 604 q 329 534 320 562 q 439 243 525 513 q 381 191 401 220 l 381 75 q 381 5 380 33 q 648 523 764 43 q 625 564 627 543 q 567 633 585 597 q 648 715 610 687 q 416 1238 752 1108 l 393 1208 m 160 366 l 142 366 q 61 336 98 340 l 26 313 q 201 17 16 107 l 294 -12 q 317 52 310 21 q 317 180 304 120 l 317 191 q 207 372 226 270 l 172 377 l 160 366 z "},"4":{"ha":838,"x_min":33,"x_max":716,"o":"m 488 1231 q 477 1225 482 1224 q 431 1167 468 1178 l 425 1144 l 425 1116 l 419 1098 q 419 1046 427 1070 q 431 930 438 983 l 431 890 l 436 873 l 431 855 q 436 774 439 808 l 436 635 q 436 532 435 571 l 431 509 l 431 133 q 442 6 427 58 l 454 0 l 477 0 l 494 0 l 517 0 l 621 0 l 633 18 l 633 41 l 633 64 l 633 87 l 633 185 l 633 202 l 633 271 q 702 283 673 283 q 713 381 699 338 q 633 463 716 477 l 633 503 l 633 520 l 633 543 l 633 561 l 633 589 l 633 607 l 633 630 l 633 647 l 633 763 l 633 786 l 633 809 l 633 827 l 633 930 l 633 1006 l 633 1029 l 633 1127 l 633 1144 l 633 1213 q 621 1225 623 1219 l 604 1225 l 488 1231 m 315 947 l 309 913 l 292 896 l 280 867 l 257 844 l 245 814 l 228 786 l 216 757 q 170 676 183 712 l 153 653 q 119 601 140 619 q 37 456 75 507 l 37 410 q 37 283 33 334 q 49 271 47 277 l 106 271 l 124 271 l 142 271 l 159 271 l 199 271 q 326 271 277 280 l 349 283 l 349 307 l 355 323 l 349 451 l 321 468 q 239 474 275 462 l 257 491 l 263 503 l 275 520 l 286 526 q 349 624 319 587 l 349 647 q 361 682 351 669 l 349 699 l 349 734 l 355 751 l 355 780 l 355 798 l 355 821 l 355 838 l 361 954 l 332 971 l 315 947 z "},"5":{"ha":814,"x_min":33,"x_max":706,"o":"m 589 1238 q 559 1232 573 1232 l 530 1232 l 349 1232 l 267 1232 l 250 1232 l 232 1226 l 214 1232 q 91 1226 138 1223 l 91 1185 l 97 1173 q 91 1103 87 1141 l 79 1080 l 68 951 l 62 927 l 62 886 l 50 804 l 50 787 l 44 693 l 50 669 l 62 664 l 73 652 q 220 534 170 595 l 237 534 q 319 587 277 576 l 326 629 q 332 758 311 699 l 314 798 l 296 793 q 267 781 281 782 l 267 827 l 267 845 l 279 886 l 279 904 q 296 1003 299 958 l 314 1015 l 349 1015 l 372 1021 l 401 1021 l 425 1015 l 448 1021 l 472 1015 l 490 1021 l 507 1015 q 642 1021 586 1028 q 648 1226 667 1137 l 589 1238 m 396 758 l 396 711 l 390 593 l 460 529 l 460 511 q 466 418 472 457 q 472 406 473 412 l 472 312 q 460 230 460 265 q 396 165 415 207 l 401 154 l 401 113 q 396 7 396 49 q 683 365 673 -12 q 413 798 706 716 l 396 758 m 203 371 l 179 359 l 33 294 q 226 1 53 85 q 319 189 349 -64 q 237 341 233 249 l 220 371 l 214 371 l 220 371 l 208 371 l 214 371 l 203 371 l 208 371 l 203 371 z "},"6":{"ha":800,"x_min":33,"x_max":720,"o":"m 298 1244 q 287 1233 292 1234 q 163 1162 212 1208 l 157 1145 l 152 1133 l 140 1127 l 134 1116 l 128 1103 l 93 1033 l 93 1015 l 81 968 l 81 951 l 64 863 l 64 787 q 58 564 39 657 q 328 0 33 38 l 334 18 l 334 35 l 334 53 q 334 199 340 142 q 245 317 257 241 q 328 552 213 499 l 334 564 l 340 616 q 322 758 349 697 q 252 758 276 724 l 252 775 l 252 793 q 257 939 262 884 q 328 1068 283 1020 l 328 1086 l 334 1098 l 334 1145 l 328 1238 l 298 1244 m 445 1238 q 422 1080 408 1158 q 545 910 519 1014 q 663 957 608 947 q 445 1238 720 1151 m 422 745 l 422 705 l 410 640 q 422 575 426 609 q 504 370 519 492 q 410 188 513 241 l 410 24 q 433 0 426 12 q 680 347 687 92 q 445 751 713 656 l 422 745 z "},"7":{"ha":779,"x_min":33,"x_max":654,"o":"m 39 1226 l 39 1202 l 33 1191 l 39 1168 q 44 1034 34 1089 l 68 1027 q 109 1034 88 1034 l 138 1027 q 208 1034 181 1029 l 225 1034 l 243 1027 l 290 1034 q 382 1034 343 1029 l 418 1027 q 412 946 403 982 l 447 934 q 476 940 463 941 q 523 940 504 947 l 557 940 q 610 946 589 947 q 651 1022 629 991 l 651 1039 q 640 1238 654 1158 l 610 1238 l 581 1238 l 552 1232 l 476 1232 l 465 1238 q 377 1238 416 1232 l 359 1238 l 342 1238 l 324 1238 q 219 1238 264 1226 q 44 1238 125 1213 l 39 1226 m 470 870 q 359 864 409 854 q 336 841 349 846 q 301 712 329 764 l 295 683 l 290 660 l 272 578 l 266 555 q 243 490 252 521 l 243 467 q 225 385 228 419 q 202 275 203 328 l 190 228 q 172 134 189 174 q 167 64 172 92 q 161 6 159 31 l 178 0 l 208 6 l 219 0 l 237 0 q 348 0 302 -5 l 377 29 l 377 47 l 377 117 l 394 222 l 394 239 l 400 263 l 406 309 q 418 368 409 343 q 458 526 434 461 l 458 543 l 465 566 l 476 584 q 494 660 479 626 q 528 765 500 724 q 552 835 534 807 l 541 864 q 470 870 496 870 z "},"8":{"ha":830,"x_min":33,"x_max":937,"o":"m 361 1220 l 344 1220 l 222 1156 q 252 635 52 864 l 234 623 l 159 531 q 408 3 33 58 q 361 252 463 150 q 350 386 350 332 q 361 473 361 439 q 437 531 401 513 q 443 554 438 545 l 443 589 q 443 687 429 642 l 425 728 q 373 768 392 742 l 373 838 l 368 873 l 373 901 q 373 977 368 945 l 414 1012 l 425 1076 q 425 1145 421 1116 q 425 1208 419 1178 q 373 1238 396 1230 l 361 1220 m 524 1238 q 495 1203 511 1217 l 495 1168 q 495 1053 505 1101 q 512 1017 508 1035 q 564 971 553 1006 q 507 734 597 810 l 500 693 l 495 659 l 500 641 l 495 623 q 507 531 508 570 q 570 322 596 442 q 489 189 554 237 q 483 9 503 86 l 500 15 q 547 -8 521 -11 q 605 9 574 7 q 651 33 628 30 q 669 612 937 331 q 721 675 683 654 q 750 722 730 706 q 524 1238 854 1120 z "},"9":{"ha":759,"x_min":22,"x_max":659,"o":"m 260 1244 q 219 1233 239 1234 q 168 1204 196 1210 q 161 1181 166 1190 q 104 1135 128 1149 q 45 787 22 956 q 307 486 63 524 q 312 665 328 589 q 225 776 247 707 l 225 874 l 225 891 l 225 961 q 307 1059 262 1023 l 307 1082 l 312 1094 q 307 1140 303 1116 l 307 1158 l 307 1233 l 260 1244 m 376 1221 q 370 1169 389 1195 q 370 1065 386 1110 q 387 1030 389 1052 q 469 845 490 965 q 387 694 477 735 q 381 619 381 651 q 381 550 391 580 l 387 515 q 399 492 397 505 q 463 509 431 507 q 376 168 497 279 l 387 151 q 370 46 386 87 l 387 5 q 584 127 510 42 q 630 231 606 194 q 642 307 630 273 l 642 336 l 642 359 l 648 382 l 648 399 l 648 428 q 654 608 659 540 l 654 654 l 654 671 l 654 688 l 654 706 l 654 776 l 648 810 l 648 827 l 642 845 l 642 914 l 630 926 l 625 996 q 613 1042 616 1017 q 590 1100 594 1074 q 393 1238 505 1210 l 376 1221 m 156 324 q 45 254 99 275 l 45 208 q 237 28 114 72 q 318 168 347 -25 l 294 179 q 184 324 219 244 l 156 324 z "}," ":{"ha":264,"x_min":0,"x_max":0,"o":""},"!":{"ha":169,"x_min":0,"x_max":0,"o":""},"\"":{"ha":161,"x_min":0,"x_max":0,"o":""},"#":{"ha":431,"x_min":0,"x_max":0,"o":""},"$":{"ha":431,"x_min":0,"x_max":0,"o":""},"%":{"ha":431,"x_min":0,"x_max":0,"o":""},"&":{"ha":330,"x_min":0,"x_max":0,"o":""},"'":{"ha":115,"x_min":0,"x_max":0,"o":""},"(":{"ha":228,"x_min":0,"x_max":0,"o":""},")":{"ha":260,"x_min":0,"x_max":0,"o":""},"*":{"ha":334,"x_min":0,"x_max":0,"o":""},"+":{"ha":431,"x_min":0,"x_max":0,"o":""},",":{"ha":161,"x_min":0,"x_max":0,"o":""},"-":{"ha":361,"x_min":33,"x_max":258,"o":"m 44 718 l 50 694 q 44 550 33 612 l 61 550 l 102 544 l 119 544 l 136 544 l 154 544 l 229 544 l 258 550 l 258 567 l 258 614 l 246 729 l 229 735 l 183 729 l 165 729 l 50 735 l 44 718 z "},".":{"ha":353,"x_min":33,"x_max":290,"o":"m 149 197 q 33 99 60 176 q 206 12 75 -62 q 160 197 290 111 l 149 197 l 160 197 l 149 197 z "},"/":{"ha":679,"x_min":-11,"x_max":694,"o":"m -10 171 l -11 1222 l 332 1222 l -10 171 m 694 235 l 616 -1 l 274 -1 l 670 1222 l 694 1222 l 694 235 z "},":":{"ha":157,"x_min":0,"x_max":0,"o":""},";":{"ha":161,"x_min":0,"x_max":0,"o":""},"<":{"ha":674,"x_min":64,"x_max":610,"o":"m 64 609 l 268 1219 l 610 1219 l 393 609 l 610 -1 l 268 -1 l 64 609 z "},"=":{"ha":431,"x_min":0,"x_max":0,"o":""},">":{"ha":674,"x_min":64,"x_max":610,"o":"m 407 -1 l 64 -1 l 281 609 l 64 1219 l 407 1219 l 610 609 l 407 -1 z "},"?":{"ha":385,"x_min":0,"x_max":0,"o":""},"@":{"ha":393,"x_min":0,"x_max":0,"o":""},"A":{"ha":834,"x_min":12,"x_max":705,"o":"m 292 1258 q 252 1235 277 1232 l 245 1200 l 257 1165 l 257 1130 l 269 1095 l 275 1055 q 286 1019 290 1038 q 298 973 292 989 l 304 944 l 310 903 l 321 874 l 327 863 q 339 775 327 808 l 345 746 l 351 723 q 368 659 355 682 q 374 601 368 625 q 380 525 382 557 q 385 513 387 519 l 391 502 q 414 409 401 446 l 368 391 q 339 252 371 311 l 345 211 q 356 199 355 205 q 450 194 410 204 q 490 7 460 79 l 519 7 l 536 2 q 583 7 559 9 l 601 7 l 705 2 l 705 43 l 682 136 l 676 147 l 671 240 l 653 263 l 653 287 l 642 333 q 635 345 635 339 l 635 362 q 618 456 621 416 q 595 554 600 513 l 589 595 q 572 700 570 652 q 543 810 540 759 q 531 892 528 857 q 525 909 524 901 q 513 921 520 919 l 513 949 l 507 973 l 502 1019 q 496 1037 495 1028 l 490 1060 l 490 1089 q 473 1211 472 1164 q 444 1240 453 1224 q 292 1258 355 1217 m 170 816 l 170 793 l 159 746 l 135 624 q 118 525 117 566 l 106 502 l 106 473 l 89 391 l 77 351 l 71 316 l 60 235 q 31 106 34 159 q 13 19 12 61 l 24 2 l 42 2 l 60 2 l 135 -4 q 229 14 187 15 l 234 37 l 240 48 q 252 153 239 111 l 252 176 l 257 188 l 263 240 l 263 258 l 269 275 l 269 321 q 286 409 290 368 l 281 432 l 281 450 q 275 467 274 458 l 263 583 l 257 606 l 257 630 l 252 642 l 252 665 q 240 741 237 706 q 229 833 227 792 l 188 845 l 170 816 z "},"B":{"ha":774,"x_min":12,"x_max":732,"o":"m 383 1258 q 342 1246 362 1243 q 348 1111 361 1177 q 353 1058 358 1082 q 436 876 467 996 q 342 711 456 740 l 342 669 q 342 540 348 590 q 430 363 460 487 q 330 180 455 228 l 336 163 l 342 145 l 342 81 q 348 -14 340 26 q 630 252 602 14 q 601 564 671 419 l 589 569 l 507 623 q 589 669 551 661 q 618 705 592 699 q 383 1258 732 1186 m 106 1246 q 12 1217 50 1240 l 12 1199 q 18 1069 21 1120 l 18 911 l 12 899 q 18 887 20 893 q 18 781 17 824 l 18 675 q 12 604 18 631 l 18 546 l 12 428 l 12 28 l 24 10 q 224 16 128 -28 l 236 57 l 230 104 l 224 140 l 224 186 l 230 210 l 224 222 q 230 381 217 315 l 224 416 q 218 463 224 446 l 224 498 l 230 551 q 224 628 222 594 l 224 663 l 230 675 q 230 746 224 718 q 224 781 224 765 l 230 799 l 230 911 l 224 935 l 224 958 l 224 993 l 218 1017 l 224 1034 l 224 1052 l 230 1076 q 230 1211 224 1155 q 218 1229 221 1218 l 171 1229 q 106 1246 137 1243 z "},"C":{"ha":786,"x_min":12,"x_max":667,"o":"m 407 1238 q 395 1220 404 1225 l 395 1011 q 465 947 443 985 l 465 913 q 471 808 460 853 l 494 802 l 505 808 q 593 843 552 836 q 645 867 617 865 q 639 1000 659 937 q 407 1238 588 1197 m 273 1232 q 262 1220 268 1221 l 244 1215 l 216 1192 l 198 1192 l 180 1185 q 111 1151 143 1161 l 105 1133 l 76 1104 l 71 1093 q 30 1011 50 1040 l 24 971 l 18 936 l 18 791 l 12 762 l 18 739 q 18 675 12 704 l 18 542 q 18 460 15 494 l 12 449 q 18 368 12 402 l 18 304 q 41 153 16 217 q 250 -9 131 34 l 302 2 l 308 14 q 308 118 296 72 q 250 234 300 193 l 239 333 q 239 426 244 388 l 244 443 l 239 466 l 244 484 l 244 530 l 244 646 q 250 722 241 690 q 250 779 241 753 l 244 797 l 244 820 l 250 838 q 244 965 239 916 q 314 1029 264 1016 l 314 1052 l 314 1069 q 308 1151 314 1116 q 314 1226 315 1194 l 273 1232 m 465 408 q 471 281 473 330 q 389 205 443 222 l 395 193 l 384 176 q 389 130 385 147 l 389 106 q 384 8 382 45 q 639 217 585 -11 q 650 385 667 305 l 633 397 l 593 414 l 488 449 l 465 408 z "},"D":{"ha":762,"x_min":12,"x_max":688,"o":"m 30 1238 l 12 1197 q 24 1156 21 1175 l 24 730 q 24 602 21 652 l 24 566 l 24 485 q 24 409 21 441 q 18 310 14 351 l 18 286 q 12 205 22 241 l 12 187 q 12 30 21 95 l 24 6 q 234 24 139 -13 l 239 41 l 239 59 q 239 152 234 113 l 239 176 l 239 239 l 239 257 q 239 409 229 348 l 239 438 l 234 473 l 228 503 l 239 526 q 239 572 233 553 q 234 695 225 641 l 234 718 l 234 747 l 239 771 q 239 928 224 861 q 239 975 233 956 l 234 1016 q 245 1197 229 1124 q 41 1226 140 1251 l 30 1238 m 328 1202 q 333 1068 342 1126 q 339 1016 342 1038 q 415 987 387 1015 l 420 946 l 420 747 q 415 654 423 694 l 420 613 l 409 590 q 420 526 422 557 l 415 503 l 420 479 l 420 456 q 409 304 427 367 l 420 269 q 339 216 391 219 l 321 170 l 328 152 l 333 129 q 339 -5 326 49 q 636 602 675 20 q 351 1238 688 1169 l 328 1202 z "},"E":{"ha":775,"x_min":12,"x_max":644,"o":"m 49 1244 q 14 1209 28 1219 q 20 1081 25 1131 l 20 999 q 14 894 14 932 l 14 100 q 20 7 12 46 l 54 1 l 78 12 l 101 12 l 165 1 l 224 1 l 416 1 l 434 -5 l 475 -5 l 492 -5 l 510 -5 q 604 -11 564 -2 q 615 1 609 -1 l 621 18 l 621 47 l 627 65 l 627 83 l 627 199 l 633 217 q 580 240 606 236 l 551 235 l 475 235 l 457 235 l 393 235 l 370 235 l 352 240 l 335 240 l 218 235 l 230 281 l 230 298 l 235 340 l 235 445 l 235 549 l 253 538 l 271 538 l 288 538 l 306 538 q 364 538 339 535 l 381 532 q 452 538 421 544 l 475 562 l 481 573 l 481 620 l 481 736 l 463 754 l 422 754 l 405 754 l 387 754 q 247 743 309 760 l 218 754 l 218 777 l 230 795 l 230 819 q 235 888 235 862 l 235 906 l 235 923 q 241 1040 233 992 l 264 1040 q 323 1028 297 1039 q 405 1034 370 1027 q 475 1034 449 1031 q 627 1034 568 1023 l 644 1063 l 638 1087 l 644 1128 q 644 1204 627 1170 q 633 1233 634 1218 l 597 1233 q 498 1238 538 1230 l 469 1233 l 446 1233 q 364 1233 399 1238 l 347 1233 l 306 1238 l 294 1233 q 224 1238 253 1242 l 206 1238 l 189 1244 l 142 1244 l 125 1244 l 49 1244 z "},"F":{"ha":763,"x_min":12,"x_max":648,"o":"m 26 1215 l 26 392 l 26 363 l 26 183 l 20 165 l 26 136 q 20 9 12 58 l 43 -3 l 60 3 q 199 -3 139 18 l 229 9 l 229 84 l 229 108 l 229 212 l 229 276 l 229 299 l 229 322 l 229 345 l 229 368 l 229 467 l 229 484 l 229 554 l 246 549 l 269 549 l 292 549 l 333 549 l 437 549 l 460 589 l 460 612 l 460 629 l 455 641 q 455 745 462 698 l 426 758 q 235 769 313 745 l 240 798 l 235 815 l 240 844 l 235 890 l 235 908 l 240 1013 q 287 1036 265 1031 l 310 1030 l 339 1036 q 403 1030 375 1028 l 432 1030 l 449 1030 l 472 1030 l 490 1036 l 501 1030 l 513 1036 q 606 1030 568 1027 q 629 1227 648 1131 l 594 1238 l 559 1233 l 530 1233 l 513 1233 l 501 1238 q 432 1238 458 1234 l 391 1233 l 310 1233 l 292 1233 q 246 1238 265 1238 l 182 1238 l 165 1244 l 49 1244 l 26 1215 z "},"G":{"ha":806,"x_min":20,"x_max":727,"o":"m 280 1238 q 83 1046 150 1162 l 83 1017 l 72 988 q 66 919 85 949 q 77 884 75 901 l 77 855 q 77 821 71 835 q 83 774 76 793 q 83 681 73 720 l 72 669 q 83 658 82 664 q 83 525 72 581 q 361 -9 20 58 q 385 32 371 15 l 385 50 q 373 200 363 130 q 309 252 339 235 l 309 287 l 304 322 l 304 351 l 304 386 l 304 414 l 298 444 l 298 467 l 298 484 l 298 600 q 304 699 295 661 q 292 774 294 744 l 292 797 l 292 901 q 286 977 294 946 q 309 1029 302 1004 q 368 1099 361 1051 l 368 1116 l 368 1133 q 361 1145 361 1139 l 361 1192 l 356 1232 l 280 1238 m 484 1238 q 466 1232 475 1231 l 460 1220 l 460 1174 q 460 1052 453 1100 q 518 1000 498 1027 q 524 844 513 908 l 565 838 l 611 849 q 704 884 654 880 q 692 1000 707 951 q 484 1238 661 1194 m 600 606 q 500 600 547 593 l 448 594 l 448 420 l 460 386 l 518 386 q 460 212 545 250 l 448 171 l 448 20 q 616 43 491 -28 q 721 -9 654 -30 l 721 67 l 721 90 l 721 165 l 721 189 l 721 212 l 721 229 q 727 310 719 276 q 721 409 715 368 l 715 426 l 721 438 l 715 455 l 721 467 l 721 484 l 715 496 q 704 600 717 557 q 600 606 640 599 z "},"H":{"ha":819,"x_min":20,"x_max":701,"o":"m 155 1244 q 33 1215 82 1242 l 33 646 l 33 629 l 33 565 q 39 431 28 487 q 39 327 27 369 l 33 309 l 39 240 q 44 7 20 102 l 96 -4 q 114 2 105 2 q 149 2 133 5 q 248 -4 204 9 l 265 7 l 265 25 l 271 43 q 271 188 264 131 q 265 269 260 234 l 265 286 l 265 315 l 265 333 l 265 356 l 265 374 l 265 490 q 317 524 309 487 l 317 571 l 317 588 l 317 664 q 300 699 304 681 q 265 705 282 697 l 271 745 q 265 826 274 791 q 265 850 267 841 l 271 867 q 271 943 260 909 q 265 1041 259 999 l 265 1059 l 265 1076 l 265 1099 l 265 1117 l 259 1233 q 155 1244 195 1244 m 480 1233 q 456 1175 463 1200 q 456 1047 468 1105 l 456 989 l 463 977 l 463 960 l 456 867 q 456 821 464 840 q 468 705 475 755 q 416 675 428 699 l 416 594 q 416 519 422 551 q 463 501 436 500 q 463 391 468 436 l 468 118 q 474 7 465 54 l 492 7 l 515 7 l 614 7 l 631 7 l 701 7 l 701 25 l 701 43 l 701 118 l 701 141 l 701 240 l 701 257 l 701 327 l 701 345 q 694 437 693 398 l 701 472 l 694 507 l 694 542 l 701 576 l 701 594 l 694 606 l 701 629 l 694 640 l 701 733 l 694 757 l 701 798 q 694 913 690 864 l 701 931 l 694 977 l 701 1006 q 701 1233 686 1144 l 480 1233 z "},"I":{"ha":372,"x_min":20,"x_max":246,"o":"m 102 1231 q 44 1225 71 1218 l 21 1208 l 21 1150 l 27 1116 l 21 1098 l 27 1069 q 27 890 20 960 l 27 792 l 27 769 l 27 596 l 33 585 q 27 510 24 541 l 33 475 l 27 446 l 33 412 l 27 382 l 33 366 l 33 37 l 39 2 q 131 -9 92 6 q 246 8 199 8 l 246 54 l 246 71 l 246 186 l 246 210 l 246 308 l 246 325 l 246 394 l 246 412 l 246 429 l 246 504 l 246 522 l 246 538 l 246 556 l 246 596 l 246 619 l 246 723 l 246 804 l 246 833 l 246 890 l 246 908 l 246 1006 l 246 1035 l 246 1052 l 246 1069 l 240 1081 q 246 1127 240 1109 l 235 1219 q 113 1225 168 1240 l 102 1231 z "},"J":{"ha":765,"x_min":20,"x_max":709,"o":"m 542 1231 q 490 1196 508 1218 q 496 1150 492 1166 l 490 1105 l 490 1024 l 496 989 l 490 949 q 490 869 494 905 l 496 794 q 490 749 496 764 l 496 720 l 490 691 l 496 656 l 490 628 q 490 587 494 606 q 490 501 499 543 q 490 421 493 456 q 479 266 499 332 l 490 249 q 439 174 454 217 l 450 157 l 444 128 q 450 111 450 119 q 456 7 448 49 q 692 163 620 20 l 703 208 l 703 226 l 703 243 l 703 260 l 703 323 l 703 380 l 703 404 l 703 421 l 709 461 l 703 473 l 703 490 l 703 565 l 703 587 l 703 605 l 703 622 l 703 640 l 703 662 l 703 680 l 703 720 l 703 737 l 703 754 q 697 846 706 807 l 697 875 l 697 892 l 697 915 q 697 978 700 958 l 697 996 q 692 1219 705 1133 l 674 1225 q 542 1231 602 1212 m 260 484 q 123 438 189 444 q 358 -4 20 73 l 353 7 q 364 128 377 68 l 364 197 l 323 220 l 318 243 l 313 266 l 313 283 l 318 306 l 313 323 l 318 347 l 313 363 l 313 427 l 313 484 l 260 484 z "},"K":{"ha":785,"x_min":20,"x_max":658,"o":"m 24 1206 l 24 877 q 30 745 20 800 l 30 704 l 24 692 q 30 681 31 687 l 30 664 l 24 549 q 24 485 33 515 l 30 450 l 24 433 l 30 410 l 30 157 q 30 64 30 102 q 58 -11 26 16 q 157 -11 113 1 l 174 -11 q 237 1 208 1 l 243 41 l 243 58 l 243 81 l 243 99 l 243 116 l 243 174 l 237 226 l 243 249 q 249 330 240 295 l 243 347 l 243 404 l 243 427 l 243 445 l 243 560 q 243 635 240 605 l 243 658 q 243 756 231 711 l 237 773 q 237 842 240 815 q 231 941 244 895 l 237 958 l 237 975 l 237 992 l 237 1010 q 243 1056 237 1040 q 254 1177 235 1124 q 237 1217 230 1197 l 220 1217 l 197 1217 l 180 1217 l 64 1217 l 24 1206 m 433 1194 l 427 1177 l 416 1131 q 387 1027 413 1067 q 335 842 385 919 l 335 819 l 335 779 l 341 762 l 341 739 q 335 681 334 707 l 335 531 l 347 519 q 364 462 349 486 l 358 439 l 376 416 l 376 376 l 387 347 l 387 307 q 410 226 410 264 l 404 208 q 416 185 416 198 l 416 157 l 427 139 q 427 81 429 106 q 450 -11 449 31 l 485 -11 l 503 1 l 543 -11 l 583 1 q 646 1 621 -7 l 658 41 l 646 70 l 641 99 l 623 191 q 618 220 618 207 l 618 237 q 600 307 600 277 q 589 370 589 341 l 583 399 q 566 491 568 453 l 566 508 q 560 526 560 517 l 554 543 l 549 560 l 549 583 l 549 600 q 526 733 524 668 l 537 745 q 566 871 543 819 l 572 895 q 589 958 585 932 l 595 975 l 606 987 l 606 1004 l 612 1027 l 618 1044 l 652 1211 l 629 1217 l 612 1217 l 589 1217 l 549 1217 q 445 1217 485 1211 l 433 1194 z "},"L":{"ha":755,"x_min":20,"x_max":640,"o":"m 129 1223 q 117 1217 123 1215 l 71 1217 l 31 1211 l 20 1183 l 25 545 l 20 505 q 20 407 25 448 q 20 309 21 347 l 20 22 l 37 10 l 60 5 l 83 5 l 106 -1 l 129 -1 l 203 -1 l 221 -1 l 250 -1 l 273 -1 l 290 -1 l 319 -1 l 347 -1 l 365 -1 l 433 -1 l 451 -1 q 583 -7 528 3 q 635 10 614 1 l 635 28 q 629 189 640 127 l 606 200 q 463 200 524 183 q 382 205 416 191 q 255 217 310 189 l 255 258 l 255 292 l 255 332 l 255 367 l 261 407 l 255 441 l 255 458 l 255 481 l 255 528 l 255 545 l 255 562 q 261 660 252 623 l 250 700 l 250 740 l 255 774 l 255 792 l 255 809 q 250 890 247 854 l 255 907 q 255 964 250 940 l 250 987 q 238 1217 262 1124 q 129 1223 174 1228 z "},"M":{"ha":920,"x_min":0,"x_max":791,"o":"m 591 1216 l 591 1198 q 589 1123 587 1154 l 582 845 q 586 764 590 800 l 585 479 q 589 410 583 439 q 592 323 580 363 q 589 201 577 255 l 583 190 q 602 15 583 79 q 782 22 704 1 l 783 86 l 784 109 q 785 127 781 118 l 785 144 l 785 161 q 786 179 782 170 l 786 196 l 781 243 q 789 312 789 286 l 778 336 l 791 370 l 785 405 q 781 452 786 434 q 783 515 789 489 l 789 538 l 783 550 l 785 614 q 781 672 780 647 l 781 701 l 783 747 l 783 770 l 778 806 l 785 829 q 785 857 782 844 q 786 880 782 871 q 787 945 779 915 q 783 973 781 960 l 777 985 l 777 1002 l 779 1072 l 779 1090 l 780 1107 q 777 1223 784 1175 l 766 1229 q 615 1238 677 1219 l 591 1216 m 22 1213 l 19 1080 l 36 1050 l 52 1009 l 57 968 l 68 956 l 68 939 q 106 828 100 878 q 117 799 115 812 l 127 770 q 154 676 151 717 l 171 652 l 170 635 q 192 565 188 594 q 230 442 225 503 l 247 425 l 267 331 l 279 307 l 283 284 l 295 267 l 300 237 l 304 202 q 310 185 311 193 l 321 173 l 321 150 l 332 132 l 342 92 q 358 9 345 45 q 416 20 393 12 l 429 60 q 430 95 425 79 l 436 118 l 448 146 l 449 170 l 461 193 l 462 210 l 462 227 l 474 233 l 500 337 l 495 378 q 504 505 494 454 l 498 528 l 505 545 q 500 609 496 580 l 503 690 l 503 708 l 504 731 l 498 749 l 505 766 l 499 778 q 507 865 511 823 q 461 877 484 876 l 454 854 l 443 843 l 436 808 l 423 762 l 392 676 l 363 688 l 358 723 q 342 787 342 756 q 310 881 315 838 l 305 916 q 294 945 296 931 l 283 968 l 262 1067 l 252 1080 l 252 1103 q 214 1225 222 1171 l 174 1226 l 156 1227 q 110 1222 127 1227 q 46 1230 76 1232 l 22 1213 m 20 673 l 8 645 l 14 616 l 12 575 q 4 465 0 511 l 2 384 l 7 355 l 12 302 l 10 256 l 4 239 l 3 175 q 1 111 6 141 q 4 18 12 58 q 15 -11 13 3 l 33 -17 l 44 -12 l 62 -18 l 79 -12 l 143 -14 q 201 -9 176 -9 l 207 7 l 214 31 l 214 48 l 203 89 l 206 205 q 179 275 194 249 l 174 304 l 163 328 l 158 357 q 142 427 140 391 l 131 439 q 104 532 125 493 l 104 549 q 66 649 78 606 l 26 673 l 20 673 l 26 673 l 20 673 z "},"N":{"ha":788,"x_min":0,"x_max":633,"o":"m 251 14 l 257 60 l 263 72 q 264 302 235 201 q 252 331 254 317 l 241 354 l 235 383 l 212 412 l 212 435 l 195 452 l 189 464 l 161 533 l 138 573 l 132 596 q 64 752 78 671 q 35 798 43 775 l 12 804 l 12 787 q 5 677 0 724 q 12 597 3 631 l 5 574 q 5 539 9 556 q 11 470 14 500 q 10 389 18 424 q 10 315 19 346 q 16 251 19 280 l 16 234 l 16 211 l 16 113 l 15 96 l 15 26 q 136 -3 70 -12 l 251 14 m 614 13 q 625 24 620 23 l 626 94 l 631 111 l 626 122 l 627 267 q 615 307 618 288 l 592 341 q 575 387 576 369 q 541 456 548 420 q 489 555 505 513 l 472 589 l 460 624 l 444 659 l 432 682 l 415 716 l 397 751 l 387 780 l 375 814 q 358 849 363 833 l 347 866 l 347 884 q 312 947 321 917 l 300 976 q 295 993 295 985 l 283 1010 q 260 1068 268 1044 q 255 1086 255 1077 q 249 1097 248 1091 q 192 1213 206 1168 l 175 1218 l 152 1218 l 111 1207 q 7 1207 51 1221 l 7 1167 q 7 1103 12 1133 l 18 1046 q 58 965 52 1004 l 64 954 l 76 942 q 110 884 93 909 l 110 867 q 156 781 147 824 l 173 751 l 191 723 l 208 694 l 208 677 q 253 590 240 635 q 259 578 260 585 q 271 544 267 562 q 311 469 303 509 l 328 452 l 339 429 l 339 411 q 379 330 370 370 l 391 313 l 396 296 q 436 210 426 251 l 448 198 l 453 175 q 511 42 498 101 q 614 13 562 5 m 633 577 l 628 652 l 623 727 l 623 750 l 623 802 l 623 819 q 617 865 616 840 q 617 923 620 899 l 618 1021 l 612 1038 q 607 1211 625 1140 q 595 1223 597 1217 l 578 1223 q 446 1217 498 1213 l 411 1212 q 411 1154 408 1179 q 405 1056 400 1097 l 404 1010 q 410 970 410 990 l 427 952 l 433 929 l 450 912 l 456 883 l 461 860 q 473 843 470 853 l 484 825 q 507 768 500 792 l 519 756 l 524 739 l 536 728 l 559 669 l 582 618 l 581 566 l 627 549 l 633 577 z "},"O":{"ha":781,"x_min":0,"x_max":663,"o":"m 246 1224 q 62 1103 128 1182 l 45 1063 l 39 1046 q 22 947 31 985 l 22 907 l 16 890 l 9 872 l 9 734 q 9 562 0 632 l 4 544 q 9 498 13 522 q 22 406 9 444 l 22 388 l 27 308 q 39 250 40 275 l 45 216 q 79 100 72 144 l 91 106 q 298 2 168 -12 l 304 19 q 304 117 296 77 q 304 175 301 151 l 292 210 q 235 256 250 225 q 229 348 227 311 q 223 423 232 391 l 229 463 l 223 492 l 223 521 l 223 618 l 217 694 q 217 774 222 743 l 217 792 l 223 815 q 217 832 217 823 l 217 947 l 229 964 l 235 987 q 281 1040 271 1006 q 246 1224 296 1215 m 368 1178 q 368 1057 378 1109 q 373 1017 373 1037 q 442 924 425 978 l 442 532 l 431 503 l 442 486 l 437 457 q 442 279 446 345 q 385 216 418 237 l 385 193 q 414 -9 370 75 q 609 134 543 31 l 621 193 l 632 227 q 650 331 632 288 l 650 348 l 650 382 l 650 400 l 650 423 l 650 440 q 655 608 663 544 l 661 631 l 655 654 l 655 677 l 655 700 q 650 780 644 746 l 650 803 l 644 826 q 632 924 629 881 l 627 941 l 621 954 l 609 1046 q 581 1097 586 1070 q 385 1213 491 1192 l 368 1178 z "},"P":{"ha":744,"x_min":0,"x_max":643,"o":"m 338 1215 q 338 1197 340 1206 l 343 1115 q 338 1039 335 1073 q 414 992 389 1036 l 414 928 q 419 823 421 865 q 338 730 405 753 l 338 671 q 343 543 335 593 q 624 858 643 549 q 361 1238 643 1192 l 338 1215 m 22 1232 q 10 1074 0 1140 l 10 688 q 16 572 9 620 l 10 507 l 16 473 l 16 449 l 16 221 q 22 -1 14 83 q 227 11 146 -8 l 233 52 l 233 99 l 233 145 l 233 192 l 233 210 l 233 326 l 233 350 l 233 455 l 227 496 l 227 531 l 227 572 l 221 583 l 221 601 l 221 625 l 221 730 l 221 753 l 221 782 l 221 882 l 215 899 l 221 911 q 209 1045 221 991 q 209 1220 229 1141 l 191 1232 l 168 1232 l 151 1232 l 127 1232 l 22 1232 z "},"Q":{"ha":840,"x_min":0,"x_max":758,"o":"m 439 1238 q 433 1172 431 1199 l 433 998 l 487 950 l 487 920 q 493 788 499 840 l 487 758 l 487 716 l 493 686 l 487 662 l 487 632 l 493 608 l 493 590 l 487 572 l 493 554 q 499 338 492 389 q 451 195 502 244 l 451 153 q 445 20 454 73 q 463 -16 458 3 q 529 -39 503 -22 q 583 -159 541 -115 l 607 -159 q 679 -87 637 -107 q 727 -33 699 -52 l 727 3 q 679 92 692 50 l 685 111 q 733 182 720 151 l 733 200 l 733 218 l 745 248 q 751 351 743 311 q 757 482 737 425 q 745 494 752 492 q 757 506 751 503 l 751 524 q 757 572 752 554 q 751 692 758 643 l 751 740 q 745 788 751 770 l 751 830 l 745 848 q 739 920 745 893 q 721 1022 733 983 q 703 1082 707 1058 q 631 1166 653 1130 l 607 1166 l 601 1178 l 559 1202 l 547 1208 l 529 1208 l 511 1214 q 439 1238 471 1233 m 301 1225 q 97 1052 169 1160 l 91 1028 l 61 908 l 55 884 l 55 554 q 277 -16 0 157 l 355 -22 l 367 39 q 361 164 342 106 q 355 182 355 174 q 301 237 319 206 q 295 351 304 304 l 301 374 l 295 398 l 295 422 l 295 500 q 295 590 301 555 l 301 620 l 301 644 l 301 662 l 301 686 l 301 710 l 301 734 l 301 758 l 301 860 l 301 878 l 301 950 q 349 1028 337 987 l 355 1046 q 355 1219 332 1143 l 301 1225 z "},"R":{"ha":789,"x_min":0,"x_max":700,"o":"m 158 1238 q 53 1232 100 1226 q 0 1214 28 1216 l 0 1197 q 6 1068 9 1118 l 12 991 l 6 968 l 6 904 q 12 775 16 823 l 12 734 q 18 587 10 645 l 18 558 l 12 541 l 18 523 q 18 429 13 467 l 12 400 q 12 318 16 353 l 12 289 l 18 271 l 18 -4 l 41 -4 l 64 -4 l 82 -4 l 105 -4 l 211 -4 l 229 37 l 229 154 l 222 283 l 216 324 q 222 453 227 401 l 222 494 q 229 675 218 606 l 222 693 l 222 740 q 222 833 227 794 l 222 875 l 222 898 l 216 922 l 216 962 l 222 991 l 216 1009 l 216 1027 l 216 1050 l 216 1074 l 216 1091 l 216 1115 l 222 1126 q 216 1220 212 1181 q 158 1238 182 1234 m 392 1232 q 322 1162 321 1225 q 334 1050 351 1106 q 410 728 489 976 q 334 669 351 712 l 334 652 q 340 535 344 583 l 351 500 q 427 465 399 500 l 427 447 q 433 371 437 406 l 433 142 q 439 -4 427 54 l 469 -4 l 486 2 l 498 -4 l 515 -4 l 538 2 q 644 2 603 -5 l 650 20 l 650 37 l 650 60 l 650 78 l 650 195 l 650 230 l 650 254 l 650 283 l 650 300 l 650 347 l 650 465 q 638 511 641 486 l 621 552 l 609 558 q 538 605 574 593 l 538 629 q 644 962 700 751 q 392 1232 641 1213 z "},"S":{"ha":846,"x_min":18,"x_max":761,"o":"m 254 1238 q 235 1232 244 1231 q 153 1173 197 1187 q 123 1143 139 1153 q 87 1078 106 1104 q 52 1024 70 1044 q 295 573 20 690 l 301 561 l 319 555 l 325 543 l 342 537 q 401 490 379 513 l 443 478 q 520 372 499 426 q 431 229 513 269 l 437 140 q 443 -9 431 50 q 580 33 523 -3 q 740 395 761 180 q 722 448 724 421 l 710 472 l 656 579 l 645 585 q 574 650 607 629 l 550 674 q 467 733 498 699 q 271 864 347 780 q 277 935 271 908 q 313 983 295 964 q 325 1030 317 1010 l 319 1048 l 325 1059 q 330 1125 323 1095 q 325 1220 321 1181 q 254 1238 286 1237 m 395 1214 q 401 1166 404 1192 l 401 1030 l 425 994 q 473 947 458 975 q 479 882 472 911 l 496 869 l 514 869 l 538 876 l 562 876 q 580 882 571 882 l 597 882 q 699 894 659 893 q 699 994 715 947 q 401 1232 617 1214 l 395 1214 m 182 389 q 28 300 18 391 q 283 -9 87 70 l 301 -9 l 342 -20 q 342 193 359 110 q 230 389 245 252 l 182 389 z "},"T":{"ha":800,"x_min":18,"x_max":684,"o":"m 600 1225 l 553 1225 l 525 1225 l 507 1225 l 467 1225 l 450 1225 q 340 1219 387 1215 l 323 1219 l 220 1219 l 157 1219 l 139 1219 q 24 1214 71 1222 l 18 1202 l 24 1173 l 24 1110 q 35 1012 21 1053 l 53 1006 l 70 1006 l 87 1006 q 162 1000 130 1009 q 225 1012 197 1012 l 237 1000 l 243 926 l 237 886 l 237 597 q 237 505 243 545 l 237 483 q 237 408 245 439 q 243 258 252 319 q 248 246 250 252 l 248 149 q 243 62 256 102 l 266 -7 q 329 5 303 -7 q 473 16 414 -12 l 473 56 l 473 97 l 473 114 l 473 137 q 467 229 465 192 l 467 281 l 467 321 l 467 356 l 467 391 q 461 483 469 444 l 467 505 l 467 540 l 461 563 l 467 597 l 461 621 l 461 644 l 461 707 l 461 736 l 461 810 l 461 833 l 461 932 l 461 949 l 461 1018 l 479 1012 l 502 1018 l 513 1012 l 530 1012 l 548 1012 l 663 1012 q 651 1225 684 1128 l 623 1231 l 600 1225 z "},"U":{"ha":775,"x_min":18,"x_max":655,"o":"m 21 1213 q 21 1137 18 1168 l 21 855 q 27 708 20 766 q 33 597 21 644 l 33 579 l 27 562 l 27 391 q 27 374 30 382 l 27 356 q 33 239 35 287 q 50 180 50 206 q 286 -8 133 18 q 303 3 293 1 q 303 109 297 68 q 256 221 303 186 l 250 244 l 250 262 l 250 303 l 244 321 q 244 432 258 382 l 250 456 q 244 503 240 479 l 244 520 l 244 597 l 244 614 l 244 632 l 244 708 l 244 743 l 244 779 l 238 820 q 244 902 237 867 l 238 937 q 238 1014 241 983 l 238 1031 q 244 1078 238 1061 q 238 1090 237 1084 q 233 1231 245 1169 l 209 1231 l 109 1231 l 92 1231 l 21 1231 l 21 1213 m 444 1231 q 420 1166 422 1196 l 420 1090 q 426 1031 429 1056 q 420 937 426 975 l 420 873 l 426 838 l 432 450 q 450 321 448 369 l 456 292 l 444 286 q 391 186 431 222 l 391 133 q 397 121 398 127 l 397 104 q 397 9 395 49 q 414 -8 410 2 q 626 168 557 49 q 644 209 631 193 q 655 292 646 258 l 649 332 l 649 362 l 649 397 l 649 414 l 649 438 l 644 538 l 644 555 l 644 573 l 644 679 l 644 703 l 644 720 l 644 743 l 644 849 l 644 873 l 637 913 l 644 931 l 644 949 l 637 961 l 644 979 q 637 1055 633 1021 q 626 1225 645 1154 l 614 1231 l 591 1231 l 573 1231 l 549 1231 l 444 1231 z "},"V":{"ha":781,"x_min":18,"x_max":651,"o":"m 460 1208 l 454 1184 q 436 1103 439 1137 l 431 1086 l 425 1051 l 419 1010 l 413 987 l 407 946 l 401 935 l 390 882 l 401 859 q 413 830 412 844 q 436 726 433 772 l 442 708 l 465 610 l 477 598 q 500 488 474 532 l 524 511 l 535 610 q 552 691 551 656 l 558 720 l 564 755 l 576 778 l 581 825 l 581 848 l 587 865 l 599 923 l 605 946 l 605 970 q 622 1045 622 1012 q 651 1219 651 1148 q 640 1231 641 1225 l 616 1231 l 599 1231 l 576 1231 l 471 1231 l 460 1208 m 134 1219 q 123 1213 129 1212 q 18 1202 60 1218 l 18 1161 l 41 1063 q 59 970 59 1008 l 71 923 l 82 911 q 88 853 88 878 q 111 772 107 807 q 140 662 124 705 l 140 627 l 152 610 l 152 574 q 157 557 157 566 l 181 488 l 186 435 q 193 406 193 419 l 204 383 l 216 319 q 222 284 222 300 q 233 214 236 252 q 274 35 279 123 q 291 -1 287 17 q 413 -1 358 -11 l 419 12 q 442 145 441 90 q 465 238 465 190 l 454 278 l 442 319 q 431 366 433 341 q 413 435 414 408 l 401 481 l 395 499 l 378 581 l 378 604 q 349 691 355 647 l 349 708 q 332 795 332 755 l 320 819 l 320 836 q 309 865 310 849 l 302 882 q 297 900 297 891 l 291 941 q 279 1004 277 974 l 268 1022 l 268 1039 l 268 1057 l 262 1074 q 227 1208 235 1154 l 134 1219 z "},"W":{"ha":1049,"x_min":18,"x_max":938,"o":"m 488 1238 q 477 1226 482 1227 l 477 1203 l 465 1185 l 459 1162 l 448 1116 l 436 1099 l 436 1069 q 401 954 407 1007 l 413 907 q 425 866 421 885 q 448 768 446 812 q 477 646 477 701 q 488 611 487 629 l 500 570 l 505 536 l 517 507 l 523 472 q 529 443 529 456 l 541 420 l 546 391 q 570 292 568 334 l 593 199 l 598 187 l 610 135 l 645 2 l 714 2 l 726 25 l 726 60 l 732 83 l 738 106 l 743 123 l 743 141 l 749 164 l 749 182 l 755 199 l 755 216 l 761 257 q 778 385 778 336 l 743 484 l 738 524 q 726 553 728 538 l 714 600 q 697 634 701 617 l 686 681 q 668 750 669 723 q 656 779 658 765 q 639 861 640 827 q 633 872 632 866 l 633 890 q 616 924 620 907 l 610 947 q 593 1011 604 987 q 581 1069 591 1045 l 564 1127 l 564 1145 l 546 1220 q 488 1238 515 1236 m 720 1215 q 720 1151 726 1183 q 709 1075 709 1107 q 691 983 690 1031 q 703 965 700 975 l 720 947 l 720 924 l 732 901 l 738 872 l 743 854 q 755 802 753 826 q 790 663 797 734 l 813 629 l 848 640 l 848 663 l 848 692 q 865 756 861 726 l 859 768 q 877 861 880 817 q 895 970 895 926 l 906 1017 l 906 1035 q 929 1238 938 1152 l 911 1238 l 732 1238 l 720 1215 m 18 1192 l 53 1058 l 53 1040 l 77 930 l 82 890 l 94 854 l 100 831 l 111 779 l 111 762 l 123 722 l 129 663 q 146 582 143 635 q 152 553 152 566 l 163 530 l 163 500 q 180 420 180 454 l 193 396 l 193 368 q 204 303 203 334 l 210 280 q 233 182 229 222 l 233 164 q 245 106 246 135 q 256 54 260 80 q 285 -4 268 18 q 349 2 320 5 l 349 31 l 355 60 l 361 89 l 366 118 l 378 193 l 384 216 l 389 239 q 395 286 389 270 l 401 298 q 418 402 406 361 l 418 448 q 401 512 404 485 q 389 576 391 546 l 361 669 l 361 692 l 355 709 q 349 727 349 718 l 349 745 l 343 785 q 326 843 329 817 l 320 866 l 320 884 q 309 959 309 927 l 297 983 l 297 1000 q 291 1017 291 1008 l 291 1035 l 279 1052 q 239 1226 272 1155 l 221 1226 l 204 1226 l 24 1226 l 18 1192 z "},"X":{"ha":847,"x_min":18,"x_max":721,"o":"m 677 1228 l 498 1236 q 466 1168 481 1193 q 415 1055 452 1099 l 414 1037 l 425 1019 l 440 961 q 455 908 456 934 q 470 861 468 880 q 517 744 509 800 l 534 737 l 553 765 l 559 788 l 566 811 l 573 833 l 585 857 l 625 953 l 631 976 l 637 993 l 644 1004 q 721 1180 684 1116 q 694 1239 721 1220 l 677 1228 m 233 1236 q 174 1227 199 1225 q 53 1221 104 1242 l 51 1186 q 83 1115 79 1152 q 104 1068 99 1090 l 109 1050 q 145 956 134 996 l 161 916 l 170 874 l 186 839 l 196 792 q 222 728 213 758 l 231 687 l 237 663 l 248 652 l 288 523 l 298 493 l 309 464 l 313 441 l 323 417 l 340 382 l 365 305 l 370 276 q 406 171 402 224 q 416 159 415 165 l 416 142 l 427 123 q 473 6 446 52 l 503 5 l 519 4 l 560 2 l 583 1 l 623 -1 q 687 -3 656 2 l 694 20 l 688 37 q 653 149 655 98 q 622 225 624 184 l 606 254 q 580 325 591 300 l 581 348 q 544 431 549 389 l 528 460 l 528 477 q 498 559 500 522 l 487 589 l 477 618 q 472 636 471 627 l 467 648 l 462 665 q 447 724 450 699 q 416 806 425 772 l 412 841 q 387 940 385 892 q 376 952 376 943 q 340 1063 342 1015 q 294 1193 298 1127 q 233 1236 262 1227 m 188 475 q 175 441 176 458 q 148 355 154 393 l 136 338 l 129 310 l 122 293 l 110 276 l 102 241 l 90 219 l 83 208 q 20 72 54 121 l 18 26 l 52 7 l 151 14 q 237 11 196 5 q 270 107 264 60 q 267 315 336 222 l 258 374 q 223 491 233 443 l 200 498 l 188 475 z "},"Y":{"ha":818,"x_min":16,"x_max":694,"o":"m 16 1202 l 22 1191 l 22 1173 l 51 1081 q 79 989 73 1027 l 91 966 l 91 937 q 125 839 116 883 q 132 816 125 824 l 137 793 l 143 764 l 155 735 l 155 718 q 178 654 177 684 l 183 631 l 195 585 l 206 574 l 212 562 q 247 441 223 490 l 247 378 q 247 286 246 323 l 247 256 q 241 164 248 203 l 247 153 q 235 20 232 73 l 270 -3 l 448 -3 l 443 9 q 460 95 470 51 l 454 118 l 460 216 l 454 239 q 460 286 460 267 q 466 430 456 373 q 448 458 453 445 l 443 493 l 431 533 q 414 591 415 566 q 402 631 404 611 q 379 689 382 663 l 368 735 q 362 747 361 741 l 362 764 q 345 822 347 795 q 321 902 325 870 l 310 920 l 304 954 q 287 1017 290 991 q 281 1035 281 1026 l 275 1053 l 258 1099 l 258 1116 q 229 1225 234 1180 q 206 1231 215 1226 q 195 1225 201 1224 l 149 1225 l 137 1231 q 33 1231 77 1225 l 16 1202 m 489 1208 l 477 1162 l 466 1139 l 460 1116 l 437 1076 q 385 931 420 986 l 391 891 l 397 868 l 402 850 l 414 839 l 414 822 l 431 781 l 443 735 q 448 718 449 726 l 454 707 q 471 620 456 657 q 512 648 497 631 l 517 684 l 547 758 q 564 776 553 770 l 558 799 l 593 891 l 598 908 l 604 931 l 627 994 l 633 1017 l 639 1035 q 650 1046 644 1044 q 685 1150 662 1112 q 690 1219 694 1190 l 673 1225 l 656 1225 l 639 1225 q 506 1225 561 1214 l 489 1208 z "},"Z":{"ha":767,"x_min":16,"x_max":638,"o":"m 29 1196 l 29 1005 l 104 999 l 186 994 l 203 994 l 220 994 l 267 994 q 360 987 321 996 q 290 825 325 884 q 261 739 283 773 l 250 703 l 244 686 l 232 680 q 209 623 225 648 l 209 599 q 168 535 182 563 q 145 471 158 498 l 140 454 l 127 437 q 87 344 115 383 q 29 222 71 269 l 18 188 l 18 130 l 24 106 l 18 95 l 18 54 q 18 8 16 26 l 47 2 l 64 2 l 104 2 l 122 2 l 140 2 q 232 -3 193 5 l 267 2 q 279 -9 277 -3 q 325 -3 302 -2 l 336 2 q 418 2 383 -1 l 481 2 q 615 2 558 -11 l 638 14 l 638 43 l 632 60 l 638 77 q 632 95 632 86 l 638 130 q 632 228 627 186 l 621 245 l 604 240 l 580 240 l 557 240 l 540 240 l 516 240 l 499 234 q 435 245 464 234 q 296 245 355 231 l 296 275 l 313 304 l 325 338 l 342 368 l 348 391 l 354 402 l 389 489 q 441 623 428 566 l 458 640 l 458 663 l 470 675 l 470 692 l 481 698 q 516 785 498 753 l 522 802 l 545 848 q 574 918 560 893 q 632 1028 597 986 l 632 1051 l 638 1063 l 638 1086 l 638 1219 l 604 1231 l 505 1231 l 470 1231 l 435 1225 l 256 1231 l 232 1231 l 134 1231 l 116 1231 l 47 1231 l 29 1196 z "},"[":{"ha":191,"x_min":0,"x_max":0,"o":""},"\\":{"ha":679,"x_min":-11,"x_max":694,"o":"m 351 1222 l 694 1222 l 694 171 l 351 1222 m -11 1222 l 13 1222 l 410 -1 l 67 -1 l -11 235 l -11 1222 z "},"]":{"ha":212,"x_min":0,"x_max":0,"o":""},"^":{"ha":224,"x_min":0,"x_max":0,"o":""},"_":{"ha":332,"x_min":0,"x_max":0,"o":""},"`":{"ha":242,"x_min":0,"x_max":0,"o":""},"a":{"ha":834,"x_min":12,"x_max":705,"o":"m 292 1258 q 252 1235 277 1232 l 245 1200 l 257 1165 l 257 1130 l 269 1095 l 275 1055 q 286 1019 290 1038 q 298 973 292 989 l 304 944 l 310 903 l 321 874 l 327 863 q 339 775 327 808 l 345 746 l 351 723 q 368 659 355 682 q 374 601 368 625 q 380 525 382 557 q 385 513 387 519 l 391 502 q 414 409 401 446 l 368 391 q 339 252 371 311 l 345 211 q 356 199 355 205 q 450 194 410 204 q 490 7 460 79 l 519 7 l 536 2 q 583 7 559 9 l 601 7 l 705 2 l 705 43 l 682 136 l 676 147 l 671 240 l 653 263 l 653 287 l 642 333 q 635 345 635 339 l 635 362 q 618 456 621 416 q 595 554 600 513 l 589 595 q 572 700 570 652 q 543 810 540 759 q 531 892 528 857 q 525 909 524 901 q 513 921 520 919 l 513 949 l 507 973 l 502 1019 q 496 1037 495 1028 l 490 1060 l 490 1089 q 473 1211 472 1164 q 444 1240 453 1224 q 292 1258 355 1217 m 170 816 l 170 793 l 159 746 l 135 624 q 118 525 117 566 l 106 502 l 106 473 l 89 391 l 77 351 l 71 316 l 60 235 q 31 106 34 159 q 13 19 12 61 l 24 2 l 42 2 l 60 2 l 135 -4 q 229 14 187 15 l 234 37 l 240 48 q 252 153 239 111 l 252 176 l 257 188 l 263 240 l 263 258 l 269 275 l 269 321 q 286 409 290 368 l 281 432 l 281 450 q 275 467 274 458 l 263 583 l 257 606 l 257 630 l 252 642 l 252 665 q 240 741 237 706 q 229 833 227 792 l 188 845 l 170 816 z "},"b":{"ha":774,"x_min":12,"x_max":732,"o":"m 383 1258 q 342 1246 362 1243 q 348 1111 361 1177 q 353 1058 358 1082 q 436 876 467 996 q 342 711 456 740 l 342 669 q 342 540 348 590 q 430 363 460 487 q 330 180 455 228 l 336 163 l 342 145 l 342 81 q 348 -14 340 26 q 630 252 602 14 q 601 564 671 419 l 589 569 l 507 623 q 589 669 551 661 q 618 705 592 699 q 383 1258 732 1186 m 106 1246 q 12 1217 50 1240 l 12 1199 q 18 1069 21 1120 l 18 911 l 12 899 q 18 887 20 893 q 18 781 17 824 l 18 675 q 12 604 18 631 l 18 546 l 12 428 l 12 28 l 24 10 q 224 16 128 -28 l 236 57 l 230 104 l 224 140 l 224 186 l 230 210 l 224 222 q 230 381 217 315 l 224 416 q 218 463 224 446 l 224 498 l 230 551 q 224 628 222 594 l 224 663 l 230 675 q 230 746 224 718 q 224 781 224 765 l 230 799 l 230 911 l 224 935 l 224 958 l 224 993 l 218 1017 l 224 1034 l 224 1052 l 230 1076 q 230 1211 224 1155 q 218 1229 221 1218 l 171 1229 q 106 1246 137 1243 z "},"c":{"ha":786,"x_min":12,"x_max":667,"o":"m 407 1238 q 395 1220 404 1225 l 395 1011 q 465 947 443 985 l 465 913 q 471 808 460 853 l 494 802 l 505 808 q 593 843 552 836 q 645 867 617 865 q 639 1000 659 937 q 407 1238 588 1197 m 273 1232 q 262 1220 268 1221 l 244 1215 l 216 1192 l 198 1192 l 180 1185 q 111 1151 143 1161 l 105 1133 l 76 1104 l 71 1093 q 30 1011 50 1040 l 24 971 l 18 936 l 18 791 l 12 762 l 18 739 q 18 675 12 704 l 18 542 q 18 460 15 494 l 12 449 q 18 368 12 402 l 18 304 q 41 153 16 217 q 250 -9 131 34 l 302 2 l 308 14 q 308 118 296 72 q 250 234 300 193 l 239 333 q 239 426 244 388 l 244 443 l 239 466 l 244 484 l 244 530 l 244 646 q 250 722 241 690 q 250 779 241 753 l 244 797 l 244 820 l 250 838 q 244 965 239 916 q 314 1029 264 1016 l 314 1052 l 314 1069 q 308 1151 314 1116 q 314 1226 315 1194 l 273 1232 m 465 408 q 471 281 473 330 q 389 205 443 222 l 395 193 l 384 176 q 389 130 385 147 l 389 106 q 384 8 382 45 q 639 217 585 -11 q 650 385 667 305 l 633 397 l 593 414 l 488 449 l 465 408 z "},"d":{"ha":762,"x_min":12,"x_max":688,"o":"m 30 1238 l 12 1197 q 24 1156 21 1175 l 24 730 q 24 602 21 652 l 24 566 l 24 485 q 24 409 21 441 q 18 310 14 351 l 18 286 q 12 205 22 241 l 12 187 q 12 30 21 95 l 24 6 q 234 24 139 -13 l 239 41 l 239 59 q 239 152 234 113 l 239 176 l 239 239 l 239 257 q 239 409 229 348 l 239 438 l 234 473 l 228 503 l 239 526 q 239 572 233 553 q 234 695 225 641 l 234 718 l 234 747 l 239 771 q 239 928 224 861 q 239 975 233 956 l 234 1016 q 245 1197 229 1124 q 41 1226 140 1251 l 30 1238 m 328 1202 q 333 1068 342 1126 q 339 1016 342 1038 q 415 987 387 1015 l 420 946 l 420 747 q 415 654 423 694 l 420 613 l 409 590 q 420 526 422 557 l 415 503 l 420 479 l 420 456 q 409 304 427 367 l 420 269 q 339 216 391 219 l 321 170 l 328 152 l 333 129 q 339 -5 326 49 q 636 602 675 20 q 351 1238 688 1169 l 328 1202 z "},"e":{"ha":775,"x_min":12,"x_max":644,"o":"m 49 1244 q 14 1209 28 1219 q 20 1081 25 1131 l 20 999 q 14 894 14 932 l 14 100 q 20 7 12 46 l 54 1 l 78 12 l 101 12 l 165 1 l 224 1 l 416 1 l 434 -5 l 475 -5 l 492 -5 l 510 -5 q 604 -11 564 -2 q 615 1 609 -1 l 621 18 l 621 47 l 627 65 l 627 83 l 627 199 l 633 217 q 580 240 606 236 l 551 235 l 475 235 l 457 235 l 393 235 l 370 235 l 352 240 l 335 240 l 218 235 l 230 281 l 230 298 l 235 340 l 235 445 l 235 549 l 253 538 l 271 538 l 288 538 l 306 538 q 364 538 339 535 l 381 532 q 452 538 421 544 l 475 562 l 481 573 l 481 620 l 481 736 l 463 754 l 422 754 l 405 754 l 387 754 q 247 743 309 760 l 218 754 l 218 777 l 230 795 l 230 819 q 235 888 235 862 l 235 906 l 235 923 q 241 1040 233 992 l 264 1040 q 323 1028 297 1039 q 405 1034 370 1027 q 475 1034 449 1031 q 627 1034 568 1023 l 644 1063 l 638 1087 l 644 1128 q 644 1204 627 1170 q 633 1233 634 1218 l 597 1233 q 498 1238 538 1230 l 469 1233 l 446 1233 q 364 1233 399 1238 l 347 1233 l 306 1238 l 294 1233 q 224 1238 253 1242 l 206 1238 l 189 1244 l 142 1244 l 125 1244 l 49 1244 z "},"f":{"ha":763,"x_min":12,"x_max":648,"o":"m 26 1215 l 26 392 l 26 363 l 26 183 l 20 165 l 26 136 q 20 9 12 58 l 43 -3 l 60 3 q 199 -3 139 18 l 229 9 l 229 84 l 229 108 l 229 212 l 229 276 l 229 299 l 229 322 l 229 345 l 229 368 l 229 467 l 229 484 l 229 554 l 246 549 l 269 549 l 292 549 l 333 549 l 437 549 l 460 589 l 460 612 l 460 629 l 455 641 q 455 745 462 698 l 426 758 q 235 769 313 745 l 240 798 l 235 815 l 240 844 l 235 890 l 235 908 l 240 1013 q 287 1036 265 1031 l 310 1030 l 339 1036 q 403 1030 375 1028 l 432 1030 l 449 1030 l 472 1030 l 490 1036 l 501 1030 l 513 1036 q 606 1030 568 1027 q 629 1227 648 1131 l 594 1238 l 559 1233 l 530 1233 l 513 1233 l 501 1238 q 432 1238 458 1234 l 391 1233 l 310 1233 l 292 1233 q 246 1238 265 1238 l 182 1238 l 165 1244 l 49 1244 l 26 1215 z "},"g":{"ha":806,"x_min":20,"x_max":727,"o":"m 280 1238 q 83 1046 150 1162 l 83 1017 l 72 988 q 66 919 85 949 q 77 884 75 901 l 77 855 q 77 821 71 835 q 83 774 76 793 q 83 681 73 720 l 72 669 q 83 658 82 664 q 83 525 72 581 q 361 -9 20 58 q 385 32 371 15 l 385 50 q 373 200 363 130 q 309 252 339 235 l 309 287 l 304 322 l 304 351 l 304 386 l 304 414 l 298 444 l 298 467 l 298 484 l 298 600 q 304 699 295 661 q 292 774 294 744 l 292 797 l 292 901 q 286 977 294 946 q 309 1029 302 1004 q 368 1099 361 1051 l 368 1116 l 368 1133 q 361 1145 361 1139 l 361 1192 l 356 1232 l 280 1238 m 484 1238 q 466 1232 475 1231 l 460 1220 l 460 1174 q 460 1052 453 1100 q 518 1000 498 1027 q 524 844 513 908 l 565 838 l 611 849 q 704 884 654 880 q 692 1000 707 951 q 484 1238 661 1194 m 600 606 q 500 600 547 593 l 448 594 l 448 420 l 460 386 l 518 386 q 460 212 545 250 l 448 171 l 448 20 q 616 43 491 -28 q 721 -9 654 -30 l 721 67 l 721 90 l 721 165 l 721 189 l 721 212 l 721 229 q 727 310 719 276 q 721 409 715 368 l 715 426 l 721 438 l 715 455 l 721 467 l 721 484 l 715 496 q 704 600 717 557 q 600 606 640 599 z "},"h":{"ha":819,"x_min":20,"x_max":701,"o":"m 155 1244 q 33 1215 82 1242 l 33 646 l 33 629 l 33 565 q 39 431 28 487 q 39 327 27 369 l 33 309 l 39 240 q 44 7 20 102 l 96 -4 q 114 2 105 2 q 149 2 133 5 q 248 -4 204 9 l 265 7 l 265 25 l 271 43 q 271 188 264 131 q 265 269 260 234 l 265 286 l 265 315 l 265 333 l 265 356 l 265 374 l 265 490 q 317 524 309 487 l 317 571 l 317 588 l 317 664 q 300 699 304 681 q 265 705 282 697 l 271 745 q 265 826 274 791 q 265 850 267 841 l 271 867 q 271 943 260 909 q 265 1041 259 999 l 265 1059 l 265 1076 l 265 1099 l 265 1117 l 259 1233 q 155 1244 195 1244 m 480 1233 q 456 1175 463 1200 q 456 1047 468 1105 l 456 989 l 463 977 l 463 960 l 456 867 q 456 821 464 840 q 468 705 475 755 q 416 675 428 699 l 416 594 q 416 519 422 551 q 463 501 436 500 q 463 391 468 436 l 468 118 q 474 7 465 54 l 492 7 l 515 7 l 614 7 l 631 7 l 701 7 l 701 25 l 701 43 l 701 118 l 701 141 l 701 240 l 701 257 l 701 327 l 701 345 q 694 437 693 398 l 701 472 l 694 507 l 694 542 l 701 576 l 701 594 l 694 606 l 701 629 l 694 640 l 701 733 l 694 757 l 701 798 q 694 913 690 864 l 701 931 l 694 977 l 701 1006 q 701 1233 686 1144 l 480 1233 z "},"i":{"ha":372,"x_min":20,"x_max":246,"o":"m 102 1231 q 44 1225 71 1218 l 21 1208 l 21 1150 l 27 1116 l 21 1098 l 27 1069 q 27 890 20 960 l 27 792 l 27 769 l 27 596 l 33 585 q 27 510 24 541 l 33 475 l 27 446 l 33 412 l 27 382 l 33 366 l 33 37 l 39 2 q 131 -9 92 6 q 246 8 199 8 l 246 54 l 246 71 l 246 186 l 246 210 l 246 308 l 246 325 l 246 394 l 246 412 l 246 429 l 246 504 l 246 522 l 246 538 l 246 556 l 246 596 l 246 619 l 246 723 l 246 804 l 246 833 l 246 890 l 246 908 l 246 1006 l 246 1035 l 246 1052 l 246 1069 l 240 1081 q 246 1127 240 1109 l 235 1219 q 113 1225 168 1240 l 102 1231 z "},"j":{"ha":765,"x_min":20,"x_max":709,"o":"m 542 1231 q 490 1196 508 1218 q 496 1150 492 1166 l 490 1105 l 490 1024 l 496 989 l 490 949 q 490 869 494 905 l 496 794 q 490 749 496 764 l 496 720 l 490 691 l 496 656 l 490 628 q 490 587 494 606 q 490 501 499 543 q 490 421 493 456 q 479 266 499 332 l 490 249 q 439 174 454 217 l 450 157 l 444 128 q 450 111 450 119 q 456 7 448 49 q 692 163 620 20 l 703 208 l 703 226 l 703 243 l 703 260 l 703 323 l 703 380 l 703 404 l 703 421 l 709 461 l 703 473 l 703 490 l 703 565 l 703 587 l 703 605 l 703 622 l 703 640 l 703 662 l 703 680 l 703 720 l 703 737 l 703 754 q 697 846 706 807 l 697 875 l 697 892 l 697 915 q 697 978 700 958 l 697 996 q 692 1219 705 1133 l 674 1225 q 542 1231 602 1212 m 260 484 q 123 438 189 444 q 358 -4 20 73 l 353 7 q 364 128 377 68 l 364 197 l 323 220 l 318 243 l 313 266 l 313 283 l 318 306 l 313 323 l 318 347 l 313 363 l 313 427 l 313 484 l 260 484 z "},"k":{"ha":785,"x_min":20,"x_max":658,"o":"m 24 1206 l 24 877 q 30 745 20 800 l 30 704 l 24 692 q 30 681 31 687 l 30 664 l 24 549 q 24 485 33 515 l 30 450 l 24 433 l 30 410 l 30 157 q 30 64 30 102 q 58 -11 26 16 q 157 -11 113 1 l 174 -11 q 237 1 208 1 l 243 41 l 243 58 l 243 81 l 243 99 l 243 116 l 243 174 l 237 226 l 243 249 q 249 330 240 295 l 243 347 l 243 404 l 243 427 l 243 445 l 243 560 q 243 635 240 605 l 243 658 q 243 756 231 711 l 237 773 q 237 842 240 815 q 231 941 244 895 l 237 958 l 237 975 l 237 992 l 237 1010 q 243 1056 237 1040 q 254 1177 235 1124 q 237 1217 230 1197 l 220 1217 l 197 1217 l 180 1217 l 64 1217 l 24 1206 m 433 1194 l 427 1177 l 416 1131 q 387 1027 413 1067 q 335 842 385 919 l 335 819 l 335 779 l 341 762 l 341 739 q 335 681 334 707 l 335 531 l 347 519 q 364 462 349 486 l 358 439 l 376 416 l 376 376 l 387 347 l 387 307 q 410 226 410 264 l 404 208 q 416 185 416 198 l 416 157 l 427 139 q 427 81 429 106 q 450 -11 449 31 l 485 -11 l 503 1 l 543 -11 l 583 1 q 646 1 621 -7 l 658 41 l 646 70 l 641 99 l 623 191 q 618 220 618 207 l 618 237 q 600 307 600 277 q 589 370 589 341 l 583 399 q 566 491 568 453 l 566 508 q 560 526 560 517 l 554 543 l 549 560 l 549 583 l 549 600 q 526 733 524 668 l 537 745 q 566 871 543 819 l 572 895 q 589 958 585 932 l 595 975 l 606 987 l 606 1004 l 612 1027 l 618 1044 l 652 1211 l 629 1217 l 612 1217 l 589 1217 l 549 1217 q 445 1217 485 1211 l 433 1194 z "},"l":{"ha":755,"x_min":20,"x_max":640,"o":"m 129 1223 q 117 1217 123 1215 l 71 1217 l 31 1211 l 20 1183 l 25 545 l 20 505 q 20 407 25 448 q 20 309 21 347 l 20 22 l 37 10 l 60 5 l 83 5 l 106 -1 l 129 -1 l 203 -1 l 221 -1 l 250 -1 l 273 -1 l 290 -1 l 319 -1 l 347 -1 l 365 -1 l 433 -1 l 451 -1 q 583 -7 528 3 q 635 10 614 1 l 635 28 q 629 189 640 127 l 606 200 q 463 200 524 183 q 382 205 416 191 q 255 217 310 189 l 255 258 l 255 292 l 255 332 l 255 367 l 261 407 l 255 441 l 255 458 l 255 481 l 255 528 l 255 545 l 255 562 q 261 660 252 623 l 250 700 l 250 740 l 255 774 l 255 792 l 255 809 q 250 890 247 854 l 255 907 q 255 964 250 940 l 250 987 q 238 1217 262 1124 q 129 1223 174 1228 z "},"m":{"ha":920,"x_min":0,"x_max":791,"o":"m 591 1216 l 591 1198 q 589 1123 587 1154 l 582 845 q 586 764 590 800 l 585 479 q 589 410 583 439 q 592 323 580 363 q 589 201 577 255 l 583 190 q 602 15 583 79 q 782 22 704 1 l 783 86 l 784 109 q 785 127 781 118 l 785 144 l 785 161 q 786 179 782 170 l 786 196 l 781 243 q 789 312 789 286 l 778 336 l 791 370 l 785 405 q 781 452 786 434 q 783 515 789 489 l 789 538 l 783 550 l 785 614 q 781 672 780 647 l 781 701 l 783 747 l 783 770 l 778 806 l 785 829 q 785 857 782 844 q 786 880 782 871 q 787 945 779 915 q 783 973 781 960 l 777 985 l 777 1002 l 779 1072 l 779 1090 l 780 1107 q 777 1223 784 1175 l 766 1229 q 615 1238 677 1219 l 591 1216 m 22 1213 l 19 1080 l 36 1050 l 52 1009 l 57 968 l 68 956 l 68 939 q 106 828 100 878 q 117 799 115 812 l 127 770 q 154 676 151 717 l 171 652 l 170 635 q 192 565 188 594 q 230 442 225 503 l 247 425 l 267 331 l 279 307 l 283 284 l 295 267 l 300 237 l 304 202 q 310 185 311 193 l 321 173 l 321 150 l 332 132 l 342 92 q 358 9 345 45 q 416 20 393 12 l 429 60 q 430 95 425 79 l 436 118 l 448 146 l 449 170 l 461 193 l 462 210 l 462 227 l 474 233 l 500 337 l 495 378 q 504 505 494 454 l 498 528 l 505 545 q 500 609 496 580 l 503 690 l 503 708 l 504 731 l 498 749 l 505 766 l 499 778 q 507 865 511 823 q 461 877 484 876 l 454 854 l 443 843 l 436 808 l 423 762 l 392 676 l 363 688 l 358 723 q 342 787 342 756 q 310 881 315 838 l 305 916 q 294 945 296 931 l 283 968 l 262 1067 l 252 1080 l 252 1103 q 214 1225 222 1171 l 174 1226 l 156 1227 q 110 1222 127 1227 q 46 1230 76 1232 l 22 1213 m 20 673 l 8 645 l 14 616 l 12 575 q 4 465 0 511 l 2 384 l 7 355 l 12 302 l 10 256 l 4 239 l 3 175 q 1 111 6 141 q 4 18 12 58 q 15 -11 13 3 l 33 -17 l 44 -12 l 62 -18 l 79 -12 l 143 -14 q 201 -9 176 -9 l 207 7 l 214 31 l 214 48 l 203 89 l 206 205 q 179 275 194 249 l 174 304 l 163 328 l 158 357 q 142 427 140 391 l 131 439 q 104 532 125 493 l 104 549 q 66 649 78 606 l 26 673 l 20 673 l 26 673 l 20 673 z "},"n":{"ha":788,"x_min":0,"x_max":633,"o":"m 251 14 l 257 60 l 263 72 q 264 302 235 201 q 252 331 254 317 l 241 354 l 235 383 l 212 412 l 212 435 l 195 452 l 189 464 l 161 533 l 138 573 l 132 596 q 64 752 78 671 q 35 798 43 775 l 12 804 l 12 787 q 5 677 0 724 q 12 597 3 631 l 5 574 q 5 539 9 556 q 11 470 14 500 q 10 389 18 424 q 10 315 19 346 q 16 251 19 280 l 16 234 l 16 211 l 16 113 l 15 96 l 15 26 q 136 -3 70 -12 l 251 14 m 614 13 q 625 24 620 23 l 626 94 l 631 111 l 626 122 l 627 267 q 615 307 618 288 l 592 341 q 575 387 576 369 q 541 456 548 420 q 489 555 505 513 l 472 589 l 460 624 l 444 659 l 432 682 l 415 716 l 397 751 l 387 780 l 375 814 q 358 849 363 833 l 347 866 l 347 884 q 312 947 321 917 l 300 976 q 295 993 295 985 l 283 1010 q 260 1068 268 1044 q 255 1086 255 1077 q 249 1097 248 1091 q 192 1213 206 1168 l 175 1218 l 152 1218 l 111 1207 q 7 1207 51 1221 l 7 1167 q 7 1103 12 1133 l 18 1046 q 58 965 52 1004 l 64 954 l 76 942 q 110 884 93 909 l 110 867 q 156 781 147 824 l 173 751 l 191 723 l 208 694 l 208 677 q 253 590 240 635 q 259 578 260 585 q 271 544 267 562 q 311 469 303 509 l 328 452 l 339 429 l 339 411 q 379 330 370 370 l 391 313 l 396 296 q 436 210 426 251 l 448 198 l 453 175 q 511 42 498 101 q 614 13 562 5 m 633 577 l 628 652 l 623 727 l 623 750 l 623 802 l 623 819 q 617 865 616 840 q 617 923 620 899 l 618 1021 l 612 1038 q 607 1211 625 1140 q 595 1223 597 1217 l 578 1223 q 446 1217 498 1213 l 411 1212 q 411 1154 408 1179 q 405 1056 400 1097 l 404 1010 q 410 970 410 990 l 427 952 l 433 929 l 450 912 l 456 883 l 461 860 q 473 843 470 853 l 484 825 q 507 768 500 792 l 519 756 l 524 739 l 536 728 l 559 669 l 582 618 l 581 566 l 627 549 l 633 577 z "},"o":{"ha":781,"x_min":0,"x_max":663,"o":"m 246 1224 q 62 1103 128 1182 l 45 1063 l 39 1046 q 22 947 31 985 l 22 907 l 16 890 l 9 872 l 9 734 q 9 562 0 632 l 4 544 q 9 498 13 522 q 22 406 9 444 l 22 388 l 27 308 q 39 250 40 275 l 45 216 q 79 100 72 144 l 91 106 q 298 2 168 -12 l 304 19 q 304 117 296 77 q 304 175 301 151 l 292 210 q 235 256 250 225 q 229 348 227 311 q 223 423 232 391 l 229 463 l 223 492 l 223 521 l 223 618 l 217 694 q 217 774 222 743 l 217 792 l 223 815 q 217 832 217 823 l 217 947 l 229 964 l 235 987 q 281 1040 271 1006 q 246 1224 296 1215 m 368 1178 q 368 1057 378 1109 q 373 1017 373 1037 q 442 924 425 978 l 442 532 l 431 503 l 442 486 l 437 457 q 442 279 446 345 q 385 216 418 237 l 385 193 q 414 -9 370 75 q 609 134 543 31 l 621 193 l 632 227 q 650 331 632 288 l 650 348 l 650 382 l 650 400 l 650 423 l 650 440 q 655 608 663 544 l 661 631 l 655 654 l 655 677 l 655 700 q 650 780 644 746 l 650 803 l 644 826 q 632 924 629 881 l 627 941 l 621 954 l 609 1046 q 581 1097 586 1070 q 385 1213 491 1192 l 368 1178 z "},"p":{"ha":744,"x_min":0,"x_max":643,"o":"m 338 1215 q 338 1197 340 1206 l 343 1115 q 338 1039 335 1073 q 414 992 389 1036 l 414 928 q 419 823 421 865 q 338 730 405 753 l 338 671 q 343 543 335 593 q 624 858 643 549 q 361 1238 643 1192 l 338 1215 m 22 1232 q 10 1074 0 1140 l 10 688 q 16 572 9 620 l 10 507 l 16 473 l 16 449 l 16 221 q 22 -1 14 83 q 227 11 146 -8 l 233 52 l 233 99 l 233 145 l 233 192 l 233 210 l 233 326 l 233 350 l 233 455 l 227 496 l 227 531 l 227 572 l 221 583 l 221 601 l 221 625 l 221 730 l 221 753 l 221 782 l 221 882 l 215 899 l 221 911 q 209 1045 221 991 q 209 1220 229 1141 l 191 1232 l 168 1232 l 151 1232 l 127 1232 l 22 1232 z "},"q":{"ha":840,"x_min":0,"x_max":758,"o":"m 439 1238 q 433 1172 431 1199 l 433 998 l 487 950 l 487 920 q 493 788 499 840 l 487 758 l 487 716 l 493 686 l 487 662 l 487 632 l 493 608 l 493 590 l 487 572 l 493 554 q 499 338 492 389 q 451 195 502 244 l 451 153 q 445 20 454 73 q 463 -16 458 3 q 529 -39 503 -22 q 583 -159 541 -115 l 607 -159 q 679 -87 637 -107 q 727 -33 699 -52 l 727 3 q 679 92 692 50 l 685 111 q 733 182 720 151 l 733 200 l 733 218 l 745 248 q 751 351 743 311 q 757 482 737 425 q 745 494 752 492 q 757 506 751 503 l 751 524 q 757 572 752 554 q 751 692 758 643 l 751 740 q 745 788 751 770 l 751 830 l 745 848 q 739 920 745 893 q 721 1022 733 983 q 703 1082 707 1058 q 631 1166 653 1130 l 607 1166 l 601 1178 l 559 1202 l 547 1208 l 529 1208 l 511 1214 q 439 1238 471 1233 m 301 1225 q 97 1052 169 1160 l 91 1028 l 61 908 l 55 884 l 55 554 q 277 -16 0 157 l 355 -22 l 367 39 q 361 164 342 106 q 355 182 355 174 q 301 237 319 206 q 295 351 304 304 l 301 374 l 295 398 l 295 422 l 295 500 q 295 590 301 555 l 301 620 l 301 644 l 301 662 l 301 686 l 301 710 l 301 734 l 301 758 l 301 860 l 301 878 l 301 950 q 349 1028 337 987 l 355 1046 q 355 1219 332 1143 l 301 1225 z "},"r":{"ha":789,"x_min":0,"x_max":700,"o":"m 158 1238 q 53 1232 100 1226 q 0 1214 28 1216 l 0 1197 q 6 1068 9 1118 l 12 991 l 6 968 l 6 904 q 12 775 16 823 l 12 734 q 18 587 10 645 l 18 558 l 12 541 l 18 523 q 18 429 13 467 l 12 400 q 12 318 16 353 l 12 289 l 18 271 l 18 -4 l 41 -4 l 64 -4 l 82 -4 l 105 -4 l 211 -4 l 229 37 l 229 154 l 222 283 l 216 324 q 222 453 227 401 l 222 494 q 229 675 218 606 l 222 693 l 222 740 q 222 833 227 794 l 222 875 l 222 898 l 216 922 l 216 962 l 222 991 l 216 1009 l 216 1027 l 216 1050 l 216 1074 l 216 1091 l 216 1115 l 222 1126 q 216 1220 212 1181 q 158 1238 182 1234 m 392 1232 q 322 1162 321 1225 q 334 1050 351 1106 q 410 728 489 976 q 334 669 351 712 l 334 652 q 340 535 344 583 l 351 500 q 427 465 399 500 l 427 447 q 433 371 437 406 l 433 142 q 439 -4 427 54 l 469 -4 l 486 2 l 498 -4 l 515 -4 l 538 2 q 644 2 603 -5 l 650 20 l 650 37 l 650 60 l 650 78 l 650 195 l 650 230 l 650 254 l 650 283 l 650 300 l 650 347 l 650 465 q 638 511 641 486 l 621 552 l 609 558 q 538 605 574 593 l 538 629 q 644 962 700 751 q 392 1232 641 1213 z "},"s":{"ha":846,"x_min":18,"x_max":761,"o":"m 254 1238 q 235 1232 244 1231 q 153 1173 197 1187 q 123 1143 139 1153 q 87 1078 106 1104 q 52 1024 70 1044 q 295 573 20 690 l 301 561 l 319 555 l 325 543 l 342 537 q 401 490 379 513 l 443 478 q 520 372 499 426 q 431 229 513 269 l 437 140 q 443 -9 431 50 q 580 33 523 -3 q 740 395 761 180 q 722 448 724 421 l 710 472 l 656 579 l 645 585 q 574 650 607 629 l 550 674 q 467 733 498 699 q 271 864 347 780 q 277 935 271 908 q 313 983 295 964 q 325 1030 317 1010 l 319 1048 l 325 1059 q 330 1125 323 1095 q 325 1220 321 1181 q 254 1238 286 1237 m 395 1214 q 401 1166 404 1192 l 401 1030 l 425 994 q 473 947 458 975 q 479 882 472 911 l 496 869 l 514 869 l 538 876 l 562 876 q 580 882 571 882 l 597 882 q 699 894 659 893 q 699 994 715 947 q 401 1232 617 1214 l 395 1214 m 182 389 q 28 300 18 391 q 283 -9 87 70 l 301 -9 l 342 -20 q 342 193 359 110 q 230 389 245 252 l 182 389 z "},"t":{"ha":800,"x_min":18,"x_max":684,"o":"m 600 1225 l 553 1225 l 525 1225 l 507 1225 l 467 1225 l 450 1225 q 340 1219 387 1215 l 323 1219 l 220 1219 l 157 1219 l 139 1219 q 24 1214 71 1222 l 18 1202 l 24 1173 l 24 1110 q 35 1012 21 1053 l 53 1006 l 70 1006 l 87 1006 q 162 1000 130 1009 q 225 1012 197 1012 l 237 1000 l 243 926 l 237 886 l 237 597 q 237 505 243 545 l 237 483 q 237 408 245 439 q 243 258 252 319 q 248 246 250 252 l 248 149 q 243 62 256 102 l 266 -7 q 329 5 303 -7 q 473 16 414 -12 l 473 56 l 473 97 l 473 114 l 473 137 q 467 229 465 192 l 467 281 l 467 321 l 467 356 l 467 391 q 461 483 469 444 l 467 505 l 467 540 l 461 563 l 467 597 l 461 621 l 461 644 l 461 707 l 461 736 l 461 810 l 461 833 l 461 932 l 461 949 l 461 1018 l 479 1012 l 502 1018 l 513 1012 l 530 1012 l 548 1012 l 663 1012 q 651 1225 684 1128 l 623 1231 l 600 1225 z "},"u":{"ha":775,"x_min":18,"x_max":655,"o":"m 21 1213 q 21 1137 18 1168 l 21 855 q 27 708 20 766 q 33 597 21 644 l 33 579 l 27 562 l 27 391 q 27 374 30 382 l 27 356 q 33 239 35 287 q 50 180 50 206 q 286 -8 133 18 q 303 3 293 1 q 303 109 297 68 q 256 221 303 186 l 250 244 l 250 262 l 250 303 l 244 321 q 244 432 258 382 l 250 456 q 244 503 240 479 l 244 520 l 244 597 l 244 614 l 244 632 l 244 708 l 244 743 l 244 779 l 238 820 q 244 902 237 867 l 238 937 q 238 1014 241 983 l 238 1031 q 244 1078 238 1061 q 238 1090 237 1084 q 233 1231 245 1169 l 209 1231 l 109 1231 l 92 1231 l 21 1231 l 21 1213 m 444 1231 q 420 1166 422 1196 l 420 1090 q 426 1031 429 1056 q 420 937 426 975 l 420 873 l 426 838 l 432 450 q 450 321 448 369 l 456 292 l 444 286 q 391 186 431 222 l 391 133 q 397 121 398 127 l 397 104 q 397 9 395 49 q 414 -8 410 2 q 626 168 557 49 q 644 209 631 193 q 655 292 646 258 l 649 332 l 649 362 l 649 397 l 649 414 l 649 438 l 644 538 l 644 555 l 644 573 l 644 679 l 644 703 l 644 720 l 644 743 l 644 849 l 644 873 l 637 913 l 644 931 l 644 949 l 637 961 l 644 979 q 637 1055 633 1021 q 626 1225 645 1154 l 614 1231 l 591 1231 l 573 1231 l 549 1231 l 444 1231 z "},"v":{"ha":781,"x_min":18,"x_max":651,"o":"m 460 1208 l 454 1184 q 436 1103 439 1137 l 431 1086 l 425 1051 l 419 1010 l 413 987 l 407 946 l 401 935 l 390 882 l 401 859 q 413 830 412 844 q 436 726 433 772 l 442 708 l 465 610 l 477 598 q 500 488 474 532 l 524 511 l 535 610 q 552 691 551 656 l 558 720 l 564 755 l 576 778 l 581 825 l 581 848 l 587 865 l 599 923 l 605 946 l 605 970 q 622 1045 622 1012 q 651 1219 651 1148 q 640 1231 641 1225 l 616 1231 l 599 1231 l 576 1231 l 471 1231 l 460 1208 m 134 1219 q 123 1213 129 1212 q 18 1202 60 1218 l 18 1161 l 41 1063 q 59 970 59 1008 l 71 923 l 82 911 q 88 853 88 878 q 111 772 107 807 q 140 662 124 705 l 140 627 l 152 610 l 152 574 q 157 557 157 566 l 181 488 l 186 435 q 193 406 193 419 l 204 383 l 216 319 q 222 284 222 300 q 233 214 236 252 q 274 35 279 123 q 291 -1 287 17 q 413 -1 358 -11 l 419 12 q 442 145 441 90 q 465 238 465 190 l 454 278 l 442 319 q 431 366 433 341 q 413 435 414 408 l 401 481 l 395 499 l 378 581 l 378 604 q 349 691 355 647 l 349 708 q 332 795 332 755 l 320 819 l 320 836 q 309 865 310 849 l 302 882 q 297 900 297 891 l 291 941 q 279 1004 277 974 l 268 1022 l 268 1039 l 268 1057 l 262 1074 q 227 1208 235 1154 l 134 1219 z "},"w":{"ha":1049,"x_min":18,"x_max":938,"o":"m 488 1238 q 477 1226 482 1227 l 477 1203 l 465 1185 l 459 1162 l 448 1116 l 436 1099 l 436 1069 q 401 954 407 1007 l 413 907 q 425 866 421 885 q 448 768 446 812 q 477 646 477 701 q 488 611 487 629 l 500 570 l 505 536 l 517 507 l 523 472 q 529 443 529 456 l 541 420 l 546 391 q 570 292 568 334 l 593 199 l 598 187 l 610 135 l 645 2 l 714 2 l 726 25 l 726 60 l 732 83 l 738 106 l 743 123 l 743 141 l 749 164 l 749 182 l 755 199 l 755 216 l 761 257 q 778 385 778 336 l 743 484 l 738 524 q 726 553 728 538 l 714 600 q 697 634 701 617 l 686 681 q 668 750 669 723 q 656 779 658 765 q 639 861 640 827 q 633 872 632 866 l 633 890 q 616 924 620 907 l 610 947 q 593 1011 604 987 q 581 1069 591 1045 l 564 1127 l 564 1145 l 546 1220 q 488 1238 515 1236 m 720 1215 q 720 1151 726 1183 q 709 1075 709 1107 q 691 983 690 1031 q 703 965 700 975 l 720 947 l 720 924 l 732 901 l 738 872 l 743 854 q 755 802 753 826 q 790 663 797 734 l 813 629 l 848 640 l 848 663 l 848 692 q 865 756 861 726 l 859 768 q 877 861 880 817 q 895 970 895 926 l 906 1017 l 906 1035 q 929 1238 938 1152 l 911 1238 l 732 1238 l 720 1215 m 18 1192 l 53 1058 l 53 1040 l 77 930 l 82 890 l 94 854 l 100 831 l 111 779 l 111 762 l 123 722 l 129 663 q 146 582 143 635 q 152 553 152 566 l 163 530 l 163 500 q 180 420 180 454 l 193 396 l 193 368 q 204 303 203 334 l 210 280 q 233 182 229 222 l 233 164 q 245 106 246 135 q 256 54 260 80 q 285 -4 268 18 q 349 2 320 5 l 349 31 l 355 60 l 361 89 l 366 118 l 378 193 l 384 216 l 389 239 q 395 286 389 270 l 401 298 q 418 402 406 361 l 418 448 q 401 512 404 485 q 389 576 391 546 l 361 669 l 361 692 l 355 709 q 349 727 349 718 l 349 745 l 343 785 q 326 843 329 817 l 320 866 l 320 884 q 309 959 309 927 l 297 983 l 297 1000 q 291 1017 291 1008 l 291 1035 l 279 1052 q 239 1226 272 1155 l 221 1226 l 204 1226 l 24 1226 l 18 1192 z "},"x":{"ha":847,"x_min":18,"x_max":721,"o":"m 677 1228 l 498 1236 q 466 1168 481 1193 q 415 1055 452 1099 l 414 1037 l 425 1019 l 440 961 q 455 908 456 934 q 470 861 468 880 q 517 744 509 800 l 534 737 l 553 765 l 559 788 l 566 811 l 573 833 l 585 857 l 625 953 l 631 976 l 637 993 l 644 1004 q 721 1180 684 1116 q 694 1239 721 1220 l 677 1228 m 233 1236 q 174 1227 199 1225 q 53 1221 104 1242 l 51 1186 q 83 1115 79 1152 q 104 1068 99 1090 l 109 1050 q 145 956 134 996 l 161 916 l 170 874 l 186 839 l 196 792 q 222 728 213 758 l 231 687 l 237 663 l 248 652 l 288 523 l 298 493 l 309 464 l 313 441 l 323 417 l 340 382 l 365 305 l 370 276 q 406 171 402 224 q 416 159 415 165 l 416 142 l 427 123 q 473 6 446 52 l 503 5 l 519 4 l 560 2 l 583 1 l 623 -1 q 687 -3 656 2 l 694 20 l 688 37 q 653 149 655 98 q 622 225 624 184 l 606 254 q 580 325 591 300 l 581 348 q 544 431 549 389 l 528 460 l 528 477 q 498 559 500 522 l 487 589 l 477 618 q 472 636 471 627 l 467 648 l 462 665 q 447 724 450 699 q 416 806 425 772 l 412 841 q 387 940 385 892 q 376 952 376 943 q 340 1063 342 1015 q 294 1193 298 1127 q 233 1236 262 1227 m 188 475 q 175 441 176 458 q 148 355 154 393 l 136 338 l 129 310 l 122 293 l 110 276 l 102 241 l 90 219 l 83 208 q 20 72 54 121 l 18 26 l 52 7 l 151 14 q 237 11 196 5 q 270 107 264 60 q 267 315 336 222 l 258 374 q 223 491 233 443 l 200 498 l 188 475 z "},"y":{"ha":818,"x_min":16,"x_max":694,"o":"m 16 1202 l 22 1191 l 22 1173 l 51 1081 q 79 989 73 1027 l 91 966 l 91 937 q 125 839 116 883 q 132 816 125 824 l 137 793 l 143 764 l 155 735 l 155 718 q 178 654 177 684 l 183 631 l 195 585 l 206 574 l 212 562 q 247 441 223 490 l 247 378 q 247 286 246 323 l 247 256 q 241 164 248 203 l 247 153 q 235 20 232 73 l 270 -3 l 448 -3 l 443 9 q 460 95 470 51 l 454 118 l 460 216 l 454 239 q 460 286 460 267 q 466 430 456 373 q 448 458 453 445 l 443 493 l 431 533 q 414 591 415 566 q 402 631 404 611 q 379 689 382 663 l 368 735 q 362 747 361 741 l 362 764 q 345 822 347 795 q 321 902 325 870 l 310 920 l 304 954 q 287 1017 290 991 q 281 1035 281 1026 l 275 1053 l 258 1099 l 258 1116 q 229 1225 234 1180 q 206 1231 215 1226 q 195 1225 201 1224 l 149 1225 l 137 1231 q 33 1231 77 1225 l 16 1202 m 489 1208 l 477 1162 l 466 1139 l 460 1116 l 437 1076 q 385 931 420 986 l 391 891 l 397 868 l 402 850 l 414 839 l 414 822 l 431 781 l 443 735 q 448 718 449 726 l 454 707 q 471 620 456 657 q 512 648 497 631 l 517 684 l 547 758 q 564 776 553 770 l 558 799 l 593 891 l 598 908 l 604 931 l 627 994 l 633 1017 l 639 1035 q 650 1046 644 1044 q 685 1150 662 1112 q 690 1219 694 1190 l 673 1225 l 656 1225 l 639 1225 q 506 1225 561 1214 l 489 1208 z "},"z":{"ha":767,"x_min":16,"x_max":638,"o":"m 29 1196 l 29 1005 l 104 999 l 186 994 l 203 994 l 220 994 l 267 994 q 360 987 321 996 q 290 825 325 884 q 261 739 283 773 l 250 703 l 244 686 l 232 680 q 209 623 225 648 l 209 599 q 168 535 182 563 q 145 471 158 498 l 140 454 l 127 437 q 87 344 115 383 q 29 222 71 269 l 18 188 l 18 130 l 24 106 l 18 95 l 18 54 q 18 8 16 26 l 47 2 l 64 2 l 104 2 l 122 2 l 140 2 q 232 -3 193 5 l 267 2 q 279 -9 277 -3 q 325 -3 302 -2 l 336 2 q 418 2 383 -1 l 481 2 q 615 2 558 -11 l 638 14 l 638 43 l 632 60 l 638 77 q 632 95 632 86 l 638 130 q 632 228 627 186 l 621 245 l 604 240 l 580 240 l 557 240 l 540 240 l 516 240 l 499 234 q 435 245 464 234 q 296 245 355 231 l 296 275 l 313 304 l 325 338 l 342 368 l 348 391 l 354 402 l 389 489 q 441 623 428 566 l 458 640 l 458 663 l 470 675 l 470 692 l 481 698 q 516 785 498 753 l 522 802 l 545 848 q 574 918 560 893 q 632 1028 597 986 l 632 1051 l 638 1063 l 638 1086 l 638 1219 l 604 1231 l 505 1231 l 470 1231 l 435 1225 l 256 1231 l 232 1231 l 134 1231 l 116 1231 l 47 1231 l 29 1196 z "},"{":{"ha":285,"x_min":0,"x_max":0,"o":""},"|":{"ha":136,"x_min":0,"x_max":0,"o":""},"}":{"ha":244,"x_min":0,"x_max":0,"o":""},"~":{"ha":431,"x_min":0,"x_max":0,"o":""},"":{"ha":413,"x_min":0,"x_max":0,"o":""},"":{"ha":413,"x_min":0,"x_max":0,"o":""},"":{"ha":494,"x_min":0,"x_max":0,"o":""},"":{"ha":439,"x_min":0,"x_max":0,"o":""},"":{"ha":415,"x_min":0,"x_max":0,"o":""},"":{"ha":472,"x_min":0,"x_max":0,"o":""},"":{"ha":448,"x_min":0,"x_max":0,"o":""},"":{"ha":250,"x_min":0,"x_max":0,"o":""},"":{"ha":250,"x_min":0,"x_max":0,"o":""},"":{"ha":250,"x_min":0,"x_max":0,"o":""},"":{"ha":250,"x_min":0,"x_max":0,"o":""},"":{"ha":250,"x_min":0,"x_max":0,"o":""},"":{"ha":250,"x_min":0,"x_max":0,"o":""},"":{"ha":346,"x_min":0,"x_max":0,"o":""},"":{"ha":330,"x_min":0,"x_max":0,"o":""},"":{"ha":330,"x_min":0,"x_max":0,"o":""},"":{"ha":330,"x_min":0,"x_max":0,"o":""},"":{"ha":330,"x_min":0,"x_max":0,"o":""},"":{"ha":159,"x_min":0,"x_max":0,"o":""},"":{"ha":159,"x_min":0,"x_max":0,"o":""},"":{"ha":159,"x_min":0,"x_max":0,"o":""},"":{"ha":159,"x_min":0,"x_max":0,"o":""},"":{"ha":260,"x_min":0,"x_max":0,"o":""},"":{"ha":248,"x_min":0,"x_max":0,"o":""},"":{"ha":248,"x_min":0,"x_max":0,"o":""},"":{"ha":248,"x_min":0,"x_max":0,"o":""},"":{"ha":248,"x_min":0,"x_max":0,"o":""},"":{"ha":248,"x_min":0,"x_max":0,"o":""},"":{"ha":232,"x_min":0,"x_max":0,"o":""},"":{"ha":232,"x_min":0,"x_max":0,"o":""},"":{"ha":232,"x_min":0,"x_max":0,"o":""},"":{"ha":232,"x_min":0,"x_max":0,"o":""},"":{"ha":306,"x_min":0,"x_max":0,"o":""},"":{"ha":193,"x_min":0,"x_max":0,"o":""},"":{"ha":431,"x_min":0,"x_max":0,"o":""},"":{"ha":431,"x_min":0,"x_max":0,"o":""},"":{"ha":285,"x_min":0,"x_max":0,"o":""},"":{"ha":262,"x_min":0,"x_max":0,"o":""},"":{"ha":305,"x_min":0,"x_max":0,"o":""},"":{"ha":338,"x_min":0,"x_max":0,"o":""},"":{"ha":507,"x_min":0,"x_max":0,"o":""},"":{"ha":484,"x_min":0,"x_max":0,"o":""},"":{"ha":462,"x_min":0,"x_max":0,"o":""},"":{"ha":313,"x_min":0,"x_max":0,"o":""},"":{"ha":252,"x_min":0,"x_max":0,"o":""},"":{"ha":555,"x_min":0,"x_max":0,"o":""},"":{"ha":472,"x_min":0,"x_max":0,"o":""},"":{"ha":431,"x_min":0,"x_max":0,"o":""},"":{"ha":431,"x_min":0,"x_max":0,"o":""},"":{"ha":285,"x_min":0,"x_max":0,"o":""},"":{"ha":273,"x_min":0,"x_max":0,"o":""},"":{"ha":273,"x_min":0,"x_max":0,"o":""},"":{"ha":507,"x_min":0,"x_max":0,"o":""},"":{"ha":248,"x_min":0,"x_max":0,"o":""},"":{"ha":385,"x_min":0,"x_max":0,"o":""},"":{"ha":210,"x_min":0,"x_max":0,"o":""},"":{"ha":946,"x_min":0,"x_max":0,"o":""},"":{"ha":391,"x_min":0,"x_max":0,"o":""},"":{"ha":366,"x_min":0,"x_max":0,"o":""},"":{"ha":366,"x_min":0,"x_max":0,"o":""},"":{"ha":537,"x_min":0,"x_max":0,"o":""},"":{"ha":338,"x_min":0,"x_max":0,"o":""},"":{"ha":413,"x_min":0,"x_max":0,"o":""},"":{"ha":413,"x_min":0,"x_max":0,"o":""},"":{"ha":472,"x_min":0,"x_max":0,"o":""},"":{"ha":647,"x_min":0,"x_max":0,"o":""},"":{"ha":513,"x_min":0,"x_max":0,"o":""},"":{"ha":464,"x_min":0,"x_max":0,"o":""},"":{"ha":606,"x_min":0,"x_max":0,"o":""},"":{"ha":232,"x_min":0,"x_max":0,"o":""},"":{"ha":203,"x_min":0,"x_max":0,"o":""},"":{"ha":161,"x_min":0,"x_max":0,"o":""},"":{"ha":163,"x_min":0,"x_max":0,"o":""},"":{"ha":431,"x_min":0,"x_max":0,"o":""},"":{"ha":267,"x_min":0,"x_max":0,"o":""},"":{"ha":357,"x_min":0,"x_max":0,"o":""},"":{"ha":285,"x_min":0,"x_max":0,"o":""},"":{"ha":218,"x_min":0,"x_max":0,"o":""},"":{"ha":218,"x_min":0,"x_max":0,"o":""},"":{"ha":228,"x_min":0,"x_max":0,"o":""},"":{"ha":140,"x_min":0,"x_max":0,"o":""},"":{"ha":159,"x_min":0,"x_max":0,"o":""},"":{"ha":273,"x_min":0,"x_max":0,"o":""},"":{"ha":494,"x_min":0,"x_max":0,"o":""},"":{"ha":413,"x_min":0,"x_max":0,"o":""},"":{"ha":439,"x_min":0,"x_max":0,"o":""},"":{"ha":413,"x_min":0,"x_max":0,"o":""},"":{"ha":439,"x_min":0,"x_max":0,"o":""},"":{"ha":439,"x_min":0,"x_max":0,"o":""},"":{"ha":159,"x_min":0,"x_max":0,"o":""},"":{"ha":159,"x_min":0,"x_max":0,"o":""},"":{"ha":159,"x_min":0,"x_max":0,"o":""},"":{"ha":159,"x_min":0,"x_max":0,"o":""},"":{"ha":472,"x_min":0,"x_max":0,"o":""},"":{"ha":472,"x_min":0,"x_max":0,"o":""},"":{"ha":472,"x_min":0,"x_max":0,"o":""},"":{"ha":448,"x_min":0,"x_max":0,"o":""},"":{"ha":448,"x_min":0,"x_max":0,"o":""},"":{"ha":448,"x_min":0,"x_max":0,"o":""},"":{"ha":244,"x_min":0,"x_max":0,"o":""},"":{"ha":328,"x_min":0,"x_max":0,"o":""},"":{"ha":244,"x_min":0,"x_max":0,"o":""},"":{"ha":218,"x_min":0,"x_max":0,"o":""},"":{"ha":421,"x_min":0,"x_max":0,"o":""},"":{"ha":232,"x_min":0,"x_max":0,"o":""},"":{"ha":136,"x_min":0,"x_max":0,"o":""},"":{"ha":450,"x_min":0,"x_max":0,"o":""},"":{"ha":328,"x_min":0,"x_max":0,"o":""},"":{"ha":357,"x_min":0,"x_max":0,"o":""},"":{"ha":267,"x_min":0,"x_max":0,"o":""},"":{"ha":391,"x_min":0,"x_max":0,"o":""},"":{"ha":236,"x_min":0,"x_max":0,"o":""},"":{"ha":431,"x_min":0,"x_max":0,"o":""},"":{"ha":431,"x_min":0,"x_max":0,"o":""},"":{"ha":203,"x_min":0,"x_max":0,"o":""},"":{"ha":203,"x_min":0,"x_max":0,"o":""},"":{"ha":203,"x_min":0,"x_max":0,"o":""},"":{"ha":533,"x_min":0,"x_max":0,"o":""},"":{"ha":533,"x_min":0,"x_max":0,"o":""},"":{"ha":533,"x_min":0,"x_max":0,"o":""},"":{"ha":387,"x_min":0,"x_max":0,"o":""},"":{"ha":144,"x_min":0,"x_max":0,"o":""},"":{"ha":468,"x_min":0,"x_max":0,"o":""},"":{"ha":313,"x_min":0,"x_max":0,"o":""},"":{"ha":431,"x_min":0,"x_max":0,"o":""},"":{"ha":454,"x_min":0,"x_max":0,"o":""},"":{"ha":232,"x_min":0,"x_max":0,"o":""},"":{"ha":232,"x_min":0,"x_max":0,"o":""},"":{"ha":328,"x_min":0,"x_max":0,"o":""},"":{"ha":948,"x_min":0,"x_max":0,"o":""},"":{"ha":541,"x_min":0,"x_max":0,"o":""},"":{"ha":541,"x_min":0,"x_max":0,"o":""},"":{"ha":948,"x_min":0,"x_max":0,"o":""},"":{"ha":979,"x_min":0,"x_max":0,"o":""},"":{"ha":555,"x_min":0,"x_max":0,"o":""},"":{"ha":431,"x_min":0,"x_max":0,"o":""},"":{"ha":248,"x_min":0,"x_max":0,"o":""},"":{"ha":165,"x_min":0,"x_max":0,"o":""},"":{"ha":159,"x_min":0,"x_max":0,"o":""},"":{"ha":356,"x_min":0,"x_max":0,"o":""},"":{"ha":326,"x_min":0,"x_max":0,"o":""},"":{"ha":399,"x_min":0,"x_max":0,"o":""},"":{"ha":159,"x_min":0,"x_max":0,"o":""},"":{"ha":244,"x_min":0,"x_max":0,"o":""},"":{"ha":124,"x_min":0,"x_max":0,"o":""},"":{"ha":244,"x_min":0,"x_max":0,"o":""},"":{"ha":317,"x_min":0,"x_max":0,"o":""},"":{"ha":183,"x_min":0,"x_max":0,"o":""},"":{"ha":244,"x_min":0,"x_max":0,"o":""}}}
